G04 #@! TF.FileFunction,Soldermask,Bot*
%FSLAX46Y46*%
G04 Gerber Fmt 4.6, Leading zero omitted, Abs format (unit mm)*
G04 Created by KiCad (PCBNEW 4.0.7) date 12/24/17 13:22:17*
%MOMM*%
%LPD*%
G01*
G04 APERTURE LIST*
%ADD10C,0.100000*%
%ADD11C,1.924000*%
%ADD12R,2.100000X2.100000*%
%ADD13O,2.100000X2.100000*%
%ADD14R,1.600000X1.600000*%
%ADD15R,1.100000X1.700000*%
%ADD16R,1.250000X1.250000*%
G04 APERTURE END LIST*
D10*
D11*
X102870000Y-64770000D03*
X105410000Y-64770000D03*
X107950000Y-64770000D03*
X110490000Y-64770000D03*
X113030000Y-64770000D03*
X115570000Y-64770000D03*
X118110000Y-64770000D03*
X120650000Y-64770000D03*
X123190000Y-64770000D03*
X125730000Y-64770000D03*
X128270000Y-64770000D03*
X130810000Y-64770000D03*
X133350000Y-64770000D03*
X135890000Y-64770000D03*
X138430000Y-64770000D03*
X140970000Y-64770000D03*
X143510000Y-64770000D03*
X146050000Y-64770000D03*
X148590000Y-64770000D03*
X151130000Y-64770000D03*
X151130000Y-49530000D03*
X148590000Y-49530000D03*
X146050000Y-49530000D03*
X143510000Y-49530000D03*
X140970000Y-49530000D03*
X138430000Y-49530000D03*
X135890000Y-49530000D03*
X133350000Y-49530000D03*
X130810000Y-49530000D03*
X128270000Y-49530000D03*
X125730000Y-49530000D03*
X123190000Y-49530000D03*
X120650000Y-49530000D03*
X118110000Y-49530000D03*
X115570000Y-49530000D03*
X113030000Y-49530000D03*
X110490000Y-49530000D03*
X107950000Y-49530000D03*
X105410000Y-49530000D03*
X102870000Y-49530000D03*
D12*
X157480000Y-49530000D03*
D13*
X160020000Y-49530000D03*
X157480000Y-52070000D03*
X160020000Y-52070000D03*
X157480000Y-54610000D03*
X160020000Y-54610000D03*
X157480000Y-57150000D03*
X160020000Y-57150000D03*
X157480000Y-59690000D03*
X160020000Y-59690000D03*
X157480000Y-62230000D03*
X160020000Y-62230000D03*
X157480000Y-64770000D03*
X160020000Y-64770000D03*
D14*
X109644000Y-61976000D03*
X111844000Y-61976000D03*
X111844000Y-54356000D03*
X109644000Y-54356000D03*
X109644000Y-59436000D03*
X111844000Y-59436000D03*
X122344000Y-61976000D03*
X124544000Y-61976000D03*
X122344000Y-59436000D03*
X124544000Y-59436000D03*
X111844000Y-56896000D03*
X109644000Y-56896000D03*
X124544000Y-54356000D03*
X122344000Y-54356000D03*
D15*
X105222000Y-61976000D03*
X107122000Y-61976000D03*
X116266000Y-54356000D03*
X114366000Y-54356000D03*
X105222000Y-59436000D03*
X107122000Y-59436000D03*
X114874000Y-61976000D03*
X116774000Y-61976000D03*
X114874000Y-59436000D03*
X116774000Y-59436000D03*
X116266000Y-56896000D03*
X114366000Y-56896000D03*
X128458000Y-54356000D03*
X126558000Y-54356000D03*
D12*
X124460000Y-71120000D03*
D13*
X121920000Y-71120000D03*
X119380000Y-71120000D03*
X116840000Y-71120000D03*
D12*
X143510000Y-71755000D03*
D13*
X140970000Y-71755000D03*
X138430000Y-71755000D03*
X135890000Y-71755000D03*
D12*
X108585000Y-71120000D03*
D13*
X106045000Y-71120000D03*
X103505000Y-71120000D03*
D16*
X130556000Y-57404000D03*
M02*
