M48
;DRILL file {KiCad 4.0.7} date 12/24/17 13:22:19
;FORMAT={-:-/ absolute / inch / decimal}
FMAT,2
INCH,TZ
T1C0.020
T2C0.039
T3C0.040
%
G90
G05
M72
T1
X5.14Y-2.26
T2
X4.075Y-2.8
X4.08Y-2.68
X4.175Y-2.8
X4.18Y-2.7
X4.275Y-2.8
X4.4367Y-2.0507
X4.5433Y-2.0649
X4.6Y-2.8
X4.7Y-2.8
X4.8Y-2.8
X4.9Y-2.8
X5.1Y-2.68
X5.16Y-2.82
X5.26Y-2.06
X5.35Y-2.825
X5.36Y-2.04
X5.375Y-2.25
X5.375Y-2.425
X5.45Y-2.825
X5.475Y-2.15
X5.475Y-2.45
X5.55Y-2.825
X5.65Y-2.825
X6.2Y-1.95
X6.2Y-2.05
X6.2Y-2.15
X6.2Y-2.25
X6.2Y-2.35
X6.2Y-2.45
X6.2Y-2.55
X6.3Y-1.95
X6.3Y-2.05
X6.3Y-2.15
X6.3Y-2.25
X6.3Y-2.35
X6.3Y-2.45
X6.3Y-2.55
X6.45Y-2.55
X6.65Y-2.35
T3
X4.05Y-1.95
X4.05Y-2.55
X4.15Y-1.95
X4.15Y-2.55
X4.25Y-1.95
X4.25Y-2.55
X4.35Y-1.95
X4.35Y-2.55
X4.45Y-1.95
X4.45Y-2.55
X4.55Y-1.95
X4.55Y-2.55
X4.65Y-1.95
X4.65Y-2.55
X4.75Y-1.95
X4.75Y-2.55
X4.85Y-1.95
X4.85Y-2.55
X4.95Y-1.95
X4.95Y-2.55
X5.05Y-1.95
X5.05Y-2.55
X5.15Y-1.95
X5.15Y-2.55
X5.25Y-1.95
X5.25Y-2.55
X5.35Y-1.95
X5.35Y-2.55
X5.45Y-1.95
X5.45Y-2.55
X5.55Y-1.95
X5.55Y-2.55
X5.65Y-1.95
X5.65Y-2.55
X5.75Y-1.95
X5.75Y-2.55
X5.85Y-1.95
X5.85Y-2.55
X5.95Y-1.95
X5.95Y-2.55
T0
M30
