G04 #@! TF.FileFunction,Legend,Top*
%FSLAX46Y46*%
G04 Gerber Fmt 4.6, Leading zero omitted, Abs format (unit mm)*
G04 Created by KiCad (PCBNEW 4.0.7) date 12/24/17 13:22:17*
%MOMM*%
%LPD*%
G01*
G04 APERTURE LIST*
%ADD10C,0.100000*%
%ADD11C,0.150000*%
%ADD12C,0.120000*%
%ADD13C,0.125000*%
G04 APERTURE END LIST*
D10*
D11*
X100330000Y-68580000D02*
X153670000Y-68580000D01*
X153670000Y-45720000D02*
X100330000Y-45720000D01*
X153670000Y-68580000D02*
X153670000Y-45720000D01*
X100330000Y-45720000D02*
X100330000Y-68580000D01*
D12*
X156150000Y-50800000D02*
X156150000Y-66100000D01*
X156150000Y-66100000D02*
X161350000Y-66100000D01*
X161350000Y-66100000D02*
X161350000Y-48200000D01*
X161350000Y-48200000D02*
X158750000Y-48200000D01*
X158750000Y-48200000D02*
X158750000Y-50800000D01*
X158750000Y-50800000D02*
X156150000Y-50800000D01*
X156150000Y-49530000D02*
X156150000Y-48200000D01*
X156150000Y-48200000D02*
X157480000Y-48200000D01*
X125790000Y-72460000D02*
X123190000Y-72460000D01*
X123190000Y-72460000D02*
X123190000Y-75080000D01*
X123190000Y-75080000D02*
X125790000Y-75080000D01*
X125790000Y-75080000D02*
X125790000Y-72460000D01*
X124840000Y-75080000D02*
X124080000Y-75080000D01*
X124080000Y-75080000D02*
X124080000Y-81080000D01*
X124080000Y-81080000D02*
X124840000Y-81080000D01*
X124840000Y-81080000D02*
X124840000Y-75080000D01*
X124840000Y-72030000D02*
X124840000Y-72460000D01*
X124080000Y-72030000D02*
X124080000Y-72460000D01*
X124720000Y-75080000D02*
X124720000Y-81080000D01*
X124600000Y-75080000D02*
X124600000Y-81080000D01*
X124480000Y-75080000D02*
X124480000Y-81080000D01*
X124360000Y-75080000D02*
X124360000Y-81080000D01*
X124240000Y-75080000D02*
X124240000Y-81080000D01*
X124120000Y-75080000D02*
X124120000Y-81080000D01*
X123190000Y-72460000D02*
X120650000Y-72460000D01*
X120650000Y-72460000D02*
X120650000Y-75080000D01*
X120650000Y-75080000D02*
X123190000Y-75080000D01*
X123190000Y-75080000D02*
X123190000Y-72460000D01*
X122300000Y-75080000D02*
X121540000Y-75080000D01*
X121540000Y-75080000D02*
X121540000Y-81080000D01*
X121540000Y-81080000D02*
X122300000Y-81080000D01*
X122300000Y-81080000D02*
X122300000Y-75080000D01*
X122300000Y-72030000D02*
X122300000Y-72460000D01*
X121540000Y-72030000D02*
X121540000Y-72460000D01*
X120650000Y-72460000D02*
X118110000Y-72460000D01*
X118110000Y-72460000D02*
X118110000Y-75080000D01*
X118110000Y-75080000D02*
X120650000Y-75080000D01*
X120650000Y-75080000D02*
X120650000Y-72460000D01*
X119760000Y-75080000D02*
X119000000Y-75080000D01*
X119000000Y-75080000D02*
X119000000Y-81080000D01*
X119000000Y-81080000D02*
X119760000Y-81080000D01*
X119760000Y-81080000D02*
X119760000Y-75080000D01*
X119760000Y-72030000D02*
X119760000Y-72460000D01*
X119000000Y-72030000D02*
X119000000Y-72460000D01*
X118110000Y-72460000D02*
X115510000Y-72460000D01*
X115510000Y-72460000D02*
X115510000Y-75080000D01*
X115510000Y-75080000D02*
X118110000Y-75080000D01*
X118110000Y-75080000D02*
X118110000Y-72460000D01*
X117220000Y-75080000D02*
X116460000Y-75080000D01*
X116460000Y-75080000D02*
X116460000Y-81080000D01*
X116460000Y-81080000D02*
X117220000Y-81080000D01*
X117220000Y-81080000D02*
X117220000Y-75080000D01*
X117220000Y-72030000D02*
X117220000Y-72460000D01*
X116460000Y-72030000D02*
X116460000Y-72460000D01*
X124460000Y-69850000D02*
X125730000Y-69850000D01*
X125730000Y-69850000D02*
X125730000Y-71120000D01*
X144840000Y-73195000D02*
X134560000Y-73195000D01*
X134560000Y-73195000D02*
X134560000Y-75855000D01*
X134560000Y-75855000D02*
X144840000Y-75855000D01*
X144840000Y-75855000D02*
X144840000Y-73195000D01*
X143890000Y-75855000D02*
X143890000Y-81855000D01*
X143890000Y-81855000D02*
X143130000Y-81855000D01*
X143130000Y-81855000D02*
X143130000Y-75855000D01*
X143830000Y-75855000D02*
X143830000Y-81855000D01*
X143710000Y-75855000D02*
X143710000Y-81855000D01*
X143590000Y-75855000D02*
X143590000Y-81855000D01*
X143470000Y-75855000D02*
X143470000Y-81855000D01*
X143350000Y-75855000D02*
X143350000Y-81855000D01*
X143230000Y-75855000D02*
X143230000Y-81855000D01*
X143890000Y-72865000D02*
X143890000Y-73195000D01*
X143130000Y-72865000D02*
X143130000Y-73195000D01*
X142240000Y-73195000D02*
X142240000Y-75855000D01*
X141350000Y-75855000D02*
X141350000Y-81855000D01*
X141350000Y-81855000D02*
X140590000Y-81855000D01*
X140590000Y-81855000D02*
X140590000Y-75855000D01*
X141350000Y-72797929D02*
X141350000Y-73195000D01*
X140590000Y-72797929D02*
X140590000Y-73195000D01*
X139700000Y-73195000D02*
X139700000Y-75855000D01*
X138810000Y-75855000D02*
X138810000Y-81855000D01*
X138810000Y-81855000D02*
X138050000Y-81855000D01*
X138050000Y-81855000D02*
X138050000Y-75855000D01*
X138810000Y-72797929D02*
X138810000Y-73195000D01*
X138050000Y-72797929D02*
X138050000Y-73195000D01*
X137160000Y-73195000D02*
X137160000Y-75855000D01*
X136270000Y-75855000D02*
X136270000Y-81855000D01*
X136270000Y-81855000D02*
X135510000Y-81855000D01*
X135510000Y-81855000D02*
X135510000Y-75855000D01*
X136270000Y-72797929D02*
X136270000Y-73195000D01*
X135510000Y-72797929D02*
X135510000Y-73195000D01*
X143510000Y-70485000D02*
X144780000Y-70485000D01*
X144780000Y-70485000D02*
X144780000Y-71755000D01*
X109915000Y-72560000D02*
X102175000Y-72560000D01*
X102175000Y-72560000D02*
X102175000Y-75220000D01*
X102175000Y-75220000D02*
X109915000Y-75220000D01*
X109915000Y-75220000D02*
X109915000Y-72560000D01*
X108965000Y-75220000D02*
X108965000Y-81220000D01*
X108965000Y-81220000D02*
X108205000Y-81220000D01*
X108205000Y-81220000D02*
X108205000Y-75220000D01*
X108905000Y-75220000D02*
X108905000Y-81220000D01*
X108785000Y-75220000D02*
X108785000Y-81220000D01*
X108665000Y-75220000D02*
X108665000Y-81220000D01*
X108545000Y-75220000D02*
X108545000Y-81220000D01*
X108425000Y-75220000D02*
X108425000Y-81220000D01*
X108305000Y-75220000D02*
X108305000Y-81220000D01*
X108965000Y-72230000D02*
X108965000Y-72560000D01*
X108205000Y-72230000D02*
X108205000Y-72560000D01*
X107315000Y-72560000D02*
X107315000Y-75220000D01*
X106425000Y-75220000D02*
X106425000Y-81220000D01*
X106425000Y-81220000D02*
X105665000Y-81220000D01*
X105665000Y-81220000D02*
X105665000Y-75220000D01*
X106425000Y-72162929D02*
X106425000Y-72560000D01*
X105665000Y-72162929D02*
X105665000Y-72560000D01*
X104775000Y-72560000D02*
X104775000Y-75220000D01*
X103885000Y-75220000D02*
X103885000Y-81220000D01*
X103885000Y-81220000D02*
X103125000Y-81220000D01*
X103125000Y-81220000D02*
X103125000Y-75220000D01*
X103885000Y-72162929D02*
X103885000Y-72560000D01*
X103125000Y-72162929D02*
X103125000Y-72560000D01*
X108585000Y-69850000D02*
X109855000Y-69850000D01*
X109855000Y-69850000D02*
X109855000Y-71120000D01*
X129861000Y-58089000D02*
X131251000Y-58089000D01*
X129861000Y-58089000D02*
X129861000Y-57964000D01*
X131251000Y-58089000D02*
X131251000Y-57964000D01*
X129861000Y-58089000D02*
X129947724Y-58089000D01*
X131164276Y-58089000D02*
X131251000Y-58089000D01*
X129861000Y-57404000D02*
X129861000Y-56719000D01*
X129861000Y-56719000D02*
X130556000Y-56719000D01*
D13*
X126619048Y-58146190D02*
X126619048Y-58550952D01*
X126642857Y-58598571D01*
X126666667Y-58622381D01*
X126714286Y-58646190D01*
X126809524Y-58646190D01*
X126857143Y-58622381D01*
X126880952Y-58598571D01*
X126904762Y-58550952D01*
X126904762Y-58146190D01*
X127404762Y-58646190D02*
X127119048Y-58646190D01*
X127261905Y-58646190D02*
X127261905Y-58146190D01*
X127214286Y-58217619D01*
X127166667Y-58265238D01*
X127119048Y-58289048D01*
X121261907Y-56082381D02*
X121309526Y-56106190D01*
X121404764Y-56106190D01*
X121452383Y-56082381D01*
X121476193Y-56034762D01*
X121476193Y-56010952D01*
X121452383Y-55963333D01*
X121404764Y-55939524D01*
X121333336Y-55939524D01*
X121285717Y-55915714D01*
X121261907Y-55868095D01*
X121261907Y-55844286D01*
X121285717Y-55796667D01*
X121333336Y-55772857D01*
X121404764Y-55772857D01*
X121452383Y-55796667D01*
X121619050Y-55772857D02*
X121809526Y-55772857D01*
X121690479Y-55606190D02*
X121690479Y-56034762D01*
X121714288Y-56082381D01*
X121761907Y-56106190D01*
X121809526Y-56106190D01*
X121976193Y-56106190D02*
X121976193Y-55772857D01*
X121976193Y-55820476D02*
X122000002Y-55796667D01*
X122047621Y-55772857D01*
X122119050Y-55772857D01*
X122166669Y-55796667D01*
X122190478Y-55844286D01*
X122190478Y-56106190D01*
X122190478Y-55844286D02*
X122214288Y-55796667D01*
X122261907Y-55772857D01*
X122333335Y-55772857D01*
X122380955Y-55796667D01*
X122404764Y-55844286D01*
X122404764Y-56106190D01*
X122595241Y-55606190D02*
X122904764Y-55606190D01*
X122738098Y-55796667D01*
X122809526Y-55796667D01*
X122857145Y-55820476D01*
X122880955Y-55844286D01*
X122904764Y-55891905D01*
X122904764Y-56010952D01*
X122880955Y-56058571D01*
X122857145Y-56082381D01*
X122809526Y-56106190D01*
X122666669Y-56106190D01*
X122619050Y-56082381D01*
X122595241Y-56058571D01*
X123095240Y-55653810D02*
X123119050Y-55630000D01*
X123166669Y-55606190D01*
X123285716Y-55606190D01*
X123333335Y-55630000D01*
X123357145Y-55653810D01*
X123380954Y-55701429D01*
X123380954Y-55749048D01*
X123357145Y-55820476D01*
X123071431Y-56106190D01*
X123380954Y-56106190D01*
X123523811Y-55772857D02*
X123714287Y-55772857D01*
X123595240Y-56106190D02*
X123595240Y-55677619D01*
X123619049Y-55630000D01*
X123666668Y-55606190D01*
X123714287Y-55606190D01*
X124142858Y-56106190D02*
X123857144Y-56106190D01*
X124000001Y-56106190D02*
X124000001Y-55606190D01*
X123952382Y-55677619D01*
X123904763Y-55725238D01*
X123857144Y-55749048D01*
X124452382Y-55606190D02*
X124500001Y-55606190D01*
X124547620Y-55630000D01*
X124571429Y-55653810D01*
X124595239Y-55701429D01*
X124619048Y-55796667D01*
X124619048Y-55915714D01*
X124595239Y-56010952D01*
X124571429Y-56058571D01*
X124547620Y-56082381D01*
X124500001Y-56106190D01*
X124452382Y-56106190D01*
X124404763Y-56082381D01*
X124380953Y-56058571D01*
X124357144Y-56010952D01*
X124333334Y-55915714D01*
X124333334Y-55796667D01*
X124357144Y-55701429D01*
X124380953Y-55653810D01*
X124404763Y-55630000D01*
X124452382Y-55606190D01*
X124785715Y-55606190D02*
X125095238Y-55606190D01*
X124928572Y-55796667D01*
X125000000Y-55796667D01*
X125047619Y-55820476D01*
X125071429Y-55844286D01*
X125095238Y-55891905D01*
X125095238Y-56010952D01*
X125071429Y-56058571D01*
X125047619Y-56082381D01*
X125000000Y-56106190D01*
X124857143Y-56106190D01*
X124809524Y-56082381D01*
X124785715Y-56058571D01*
X125523809Y-56082381D02*
X125476190Y-56106190D01*
X125380952Y-56106190D01*
X125333333Y-56082381D01*
X125309524Y-56058571D01*
X125285714Y-56010952D01*
X125285714Y-55868095D01*
X125309524Y-55820476D01*
X125333333Y-55796667D01*
X125380952Y-55772857D01*
X125476190Y-55772857D01*
X125523809Y-55796667D01*
X125809523Y-55820476D02*
X125761904Y-55796667D01*
X125738095Y-55772857D01*
X125714285Y-55725238D01*
X125714285Y-55701429D01*
X125738095Y-55653810D01*
X125761904Y-55630000D01*
X125809523Y-55606190D01*
X125904761Y-55606190D01*
X125952380Y-55630000D01*
X125976190Y-55653810D01*
X125999999Y-55701429D01*
X125999999Y-55725238D01*
X125976190Y-55772857D01*
X125952380Y-55796667D01*
X125904761Y-55820476D01*
X125809523Y-55820476D01*
X125761904Y-55844286D01*
X125738095Y-55868095D01*
X125714285Y-55915714D01*
X125714285Y-56010952D01*
X125738095Y-56058571D01*
X125761904Y-56082381D01*
X125809523Y-56106190D01*
X125904761Y-56106190D01*
X125952380Y-56082381D01*
X125976190Y-56058571D01*
X125999999Y-56010952D01*
X125999999Y-55915714D01*
X125976190Y-55868095D01*
X125952380Y-55844286D01*
X125904761Y-55820476D01*
X126142856Y-55772857D02*
X126333332Y-55772857D01*
X126214285Y-55606190D02*
X126214285Y-56034762D01*
X126238094Y-56082381D01*
X126285713Y-56106190D01*
X126333332Y-56106190D01*
X126714284Y-55606190D02*
X126619046Y-55606190D01*
X126571427Y-55630000D01*
X126547618Y-55653810D01*
X126499999Y-55725238D01*
X126476189Y-55820476D01*
X126476189Y-56010952D01*
X126499999Y-56058571D01*
X126523808Y-56082381D01*
X126571427Y-56106190D01*
X126666665Y-56106190D01*
X126714284Y-56082381D01*
X126738094Y-56058571D01*
X126761903Y-56010952D01*
X126761903Y-55891905D01*
X126738094Y-55844286D01*
X126714284Y-55820476D01*
X126666665Y-55796667D01*
X126571427Y-55796667D01*
X126523808Y-55820476D01*
X126499999Y-55844286D01*
X126476189Y-55891905D01*
X126976189Y-55915714D02*
X127357141Y-55915714D01*
X127595237Y-56106190D02*
X127595237Y-55772857D01*
X127595237Y-55820476D02*
X127619046Y-55796667D01*
X127666665Y-55772857D01*
X127738094Y-55772857D01*
X127785713Y-55796667D01*
X127809522Y-55844286D01*
X127809522Y-56106190D01*
X127809522Y-55844286D02*
X127833332Y-55796667D01*
X127880951Y-55772857D01*
X127952379Y-55772857D01*
X127999999Y-55796667D01*
X128023808Y-55844286D01*
X128023808Y-56106190D01*
X128333332Y-56106190D02*
X128285713Y-56082381D01*
X128261904Y-56058571D01*
X128238094Y-56010952D01*
X128238094Y-55868095D01*
X128261904Y-55820476D01*
X128285713Y-55796667D01*
X128333332Y-55772857D01*
X128404761Y-55772857D01*
X128452380Y-55796667D01*
X128476189Y-55820476D01*
X128499999Y-55868095D01*
X128499999Y-56010952D01*
X128476189Y-56058571D01*
X128452380Y-56082381D01*
X128404761Y-56106190D01*
X128333332Y-56106190D01*
X128928570Y-56106190D02*
X128928570Y-55606190D01*
X128928570Y-56082381D02*
X128880951Y-56106190D01*
X128785713Y-56106190D01*
X128738094Y-56082381D01*
X128714285Y-56058571D01*
X128690475Y-56010952D01*
X128690475Y-55868095D01*
X128714285Y-55820476D01*
X128738094Y-55796667D01*
X128785713Y-55772857D01*
X128880951Y-55772857D01*
X128928570Y-55796667D01*
X129380951Y-55772857D02*
X129380951Y-56106190D01*
X129166666Y-55772857D02*
X129166666Y-56034762D01*
X129190475Y-56082381D01*
X129238094Y-56106190D01*
X129309523Y-56106190D01*
X129357142Y-56082381D01*
X129380951Y-56058571D01*
X129690475Y-56106190D02*
X129642856Y-56082381D01*
X129619047Y-56034762D01*
X129619047Y-55606190D01*
X130071428Y-56082381D02*
X130023809Y-56106190D01*
X129928571Y-56106190D01*
X129880952Y-56082381D01*
X129857142Y-56034762D01*
X129857142Y-55844286D01*
X129880952Y-55796667D01*
X129928571Y-55772857D01*
X130023809Y-55772857D01*
X130071428Y-55796667D01*
X130095237Y-55844286D01*
X130095237Y-55891905D01*
X129857142Y-55939524D01*
X130309523Y-55915714D02*
X130690475Y-55915714D01*
X131142856Y-56082381D02*
X131095237Y-56106190D01*
X130999999Y-56106190D01*
X130952380Y-56082381D01*
X130928571Y-56058571D01*
X130904761Y-56010952D01*
X130904761Y-55868095D01*
X130928571Y-55820476D01*
X130952380Y-55796667D01*
X130999999Y-55772857D01*
X131095237Y-55772857D01*
X131142856Y-55796667D01*
X131357142Y-56106190D02*
X131357142Y-55606190D01*
X131571427Y-56106190D02*
X131571427Y-55844286D01*
X131547618Y-55796667D01*
X131499999Y-55772857D01*
X131428570Y-55772857D01*
X131380951Y-55796667D01*
X131357142Y-55820476D01*
X131809523Y-56106190D02*
X131809523Y-55772857D01*
X131809523Y-55606190D02*
X131785713Y-55630000D01*
X131809523Y-55653810D01*
X131833332Y-55630000D01*
X131809523Y-55606190D01*
X131809523Y-55653810D01*
X132047618Y-55772857D02*
X132047618Y-56106190D01*
X132047618Y-55820476D02*
X132071427Y-55796667D01*
X132119046Y-55772857D01*
X132190475Y-55772857D01*
X132238094Y-55796667D01*
X132261903Y-55844286D01*
X132261903Y-56106190D01*
X132714284Y-56106190D02*
X132714284Y-55844286D01*
X132690475Y-55796667D01*
X132642856Y-55772857D01*
X132547618Y-55772857D01*
X132499999Y-55796667D01*
X132714284Y-56082381D02*
X132666665Y-56106190D01*
X132547618Y-56106190D01*
X132499999Y-56082381D01*
X132476189Y-56034762D01*
X132476189Y-55987143D01*
X132499999Y-55939524D01*
X132547618Y-55915714D01*
X132666665Y-55915714D01*
X132714284Y-55891905D01*
X115772381Y-52629523D02*
X115796190Y-52581904D01*
X115796190Y-52486666D01*
X115772381Y-52439047D01*
X115724762Y-52415237D01*
X115700952Y-52415237D01*
X115653333Y-52439047D01*
X115629524Y-52486666D01*
X115629524Y-52558094D01*
X115605714Y-52605713D01*
X115558095Y-52629523D01*
X115534286Y-52629523D01*
X115486667Y-52605713D01*
X115462857Y-52558094D01*
X115462857Y-52486666D01*
X115486667Y-52439047D01*
X115772381Y-51986666D02*
X115796190Y-52034285D01*
X115796190Y-52129523D01*
X115772381Y-52177142D01*
X115748571Y-52200951D01*
X115700952Y-52224761D01*
X115558095Y-52224761D01*
X115510476Y-52200951D01*
X115486667Y-52177142D01*
X115462857Y-52129523D01*
X115462857Y-52034285D01*
X115486667Y-51986666D01*
X115343810Y-51796190D02*
X115320000Y-51772380D01*
X115296190Y-51724761D01*
X115296190Y-51605714D01*
X115320000Y-51558095D01*
X115343810Y-51534285D01*
X115391429Y-51510476D01*
X115439048Y-51510476D01*
X115510476Y-51534285D01*
X115796190Y-51819999D01*
X115796190Y-51510476D01*
X113232381Y-52641428D02*
X113256190Y-52593809D01*
X113256190Y-52498571D01*
X113232381Y-52450952D01*
X113184762Y-52427142D01*
X113160952Y-52427142D01*
X113113333Y-52450952D01*
X113089524Y-52498571D01*
X113089524Y-52569999D01*
X113065714Y-52617618D01*
X113018095Y-52641428D01*
X112994286Y-52641428D01*
X112946667Y-52617618D01*
X112922857Y-52569999D01*
X112922857Y-52498571D01*
X112946667Y-52450952D01*
X113256190Y-51998571D02*
X112756190Y-51998571D01*
X113232381Y-51998571D02*
X113256190Y-52046190D01*
X113256190Y-52141428D01*
X113232381Y-52189047D01*
X113208571Y-52212856D01*
X113160952Y-52236666D01*
X113018095Y-52236666D01*
X112970476Y-52212856D01*
X112946667Y-52189047D01*
X112922857Y-52141428D01*
X112922857Y-52046190D01*
X112946667Y-51998571D01*
X112803810Y-51784285D02*
X112780000Y-51760475D01*
X112756190Y-51712856D01*
X112756190Y-51593809D01*
X112780000Y-51546190D01*
X112803810Y-51522380D01*
X112851429Y-51498571D01*
X112899048Y-51498571D01*
X112970476Y-51522380D01*
X113256190Y-51808094D01*
X113256190Y-51498571D01*
X109811429Y-67536190D02*
X109811429Y-67202857D01*
X109811429Y-67250476D02*
X109835238Y-67226667D01*
X109882857Y-67202857D01*
X109954286Y-67202857D01*
X110001905Y-67226667D01*
X110025714Y-67274286D01*
X110025714Y-67536190D01*
X110025714Y-67274286D02*
X110049524Y-67226667D01*
X110097143Y-67202857D01*
X110168571Y-67202857D01*
X110216191Y-67226667D01*
X110240000Y-67274286D01*
X110240000Y-67536190D01*
X110549524Y-67536190D02*
X110501905Y-67512381D01*
X110478096Y-67488571D01*
X110454286Y-67440952D01*
X110454286Y-67298095D01*
X110478096Y-67250476D01*
X110501905Y-67226667D01*
X110549524Y-67202857D01*
X110620953Y-67202857D01*
X110668572Y-67226667D01*
X110692381Y-67250476D01*
X110716191Y-67298095D01*
X110716191Y-67440952D01*
X110692381Y-67488571D01*
X110668572Y-67512381D01*
X110620953Y-67536190D01*
X110549524Y-67536190D01*
X110906667Y-67083810D02*
X110930477Y-67060000D01*
X110978096Y-67036190D01*
X111097143Y-67036190D01*
X111144762Y-67060000D01*
X111168572Y-67083810D01*
X111192381Y-67131429D01*
X111192381Y-67179048D01*
X111168572Y-67250476D01*
X110882858Y-67536190D01*
X111192381Y-67536190D01*
X107711906Y-67536190D02*
X107711906Y-67202857D01*
X107711906Y-67036190D02*
X107688096Y-67060000D01*
X107711906Y-67083810D01*
X107735715Y-67060000D01*
X107711906Y-67036190D01*
X107711906Y-67083810D01*
X107926191Y-67083810D02*
X107950001Y-67060000D01*
X107997620Y-67036190D01*
X108116667Y-67036190D01*
X108164286Y-67060000D01*
X108188096Y-67083810D01*
X108211905Y-67131429D01*
X108211905Y-67179048D01*
X108188096Y-67250476D01*
X107902382Y-67536190D01*
X108211905Y-67536190D01*
X105290953Y-67512381D02*
X105243334Y-67536190D01*
X105148096Y-67536190D01*
X105100477Y-67512381D01*
X105076668Y-67488571D01*
X105052858Y-67440952D01*
X105052858Y-67298095D01*
X105076668Y-67250476D01*
X105100477Y-67226667D01*
X105148096Y-67202857D01*
X105243334Y-67202857D01*
X105290953Y-67226667D01*
X105481429Y-67083810D02*
X105505239Y-67060000D01*
X105552858Y-67036190D01*
X105671905Y-67036190D01*
X105719524Y-67060000D01*
X105743334Y-67083810D01*
X105767143Y-67131429D01*
X105767143Y-67179048D01*
X105743334Y-67250476D01*
X105457620Y-67536190D01*
X105767143Y-67536190D01*
X102322381Y-67512381D02*
X102370000Y-67536190D01*
X102465238Y-67536190D01*
X102512857Y-67512381D01*
X102536667Y-67464762D01*
X102536667Y-67440952D01*
X102512857Y-67393333D01*
X102465238Y-67369524D01*
X102393810Y-67369524D01*
X102346191Y-67345714D01*
X102322381Y-67298095D01*
X102322381Y-67274286D01*
X102346191Y-67226667D01*
X102393810Y-67202857D01*
X102465238Y-67202857D01*
X102512857Y-67226667D01*
X102727143Y-67512381D02*
X102774762Y-67536190D01*
X102870000Y-67536190D01*
X102917619Y-67512381D01*
X102941429Y-67464762D01*
X102941429Y-67440952D01*
X102917619Y-67393333D01*
X102870000Y-67369524D01*
X102798572Y-67369524D01*
X102750953Y-67345714D01*
X102727143Y-67298095D01*
X102727143Y-67274286D01*
X102750953Y-67226667D01*
X102798572Y-67202857D01*
X102870000Y-67202857D01*
X102917619Y-67226667D01*
X103131905Y-67083810D02*
X103155715Y-67060000D01*
X103203334Y-67036190D01*
X103322381Y-67036190D01*
X103370000Y-67060000D01*
X103393810Y-67083810D01*
X103417619Y-67131429D01*
X103417619Y-67179048D01*
X103393810Y-67250476D01*
X103108096Y-67536190D01*
X103417619Y-67536190D01*
X138299048Y-67536190D02*
X138299048Y-67036190D01*
X138299048Y-67512381D02*
X138251429Y-67536190D01*
X138156191Y-67536190D01*
X138108572Y-67512381D01*
X138084763Y-67488571D01*
X138060953Y-67440952D01*
X138060953Y-67298095D01*
X138084763Y-67250476D01*
X138108572Y-67226667D01*
X138156191Y-67202857D01*
X138251429Y-67202857D01*
X138299048Y-67226667D01*
X138799048Y-67536190D02*
X138513334Y-67536190D01*
X138656191Y-67536190D02*
X138656191Y-67036190D01*
X138608572Y-67107619D01*
X138560953Y-67155238D01*
X138513334Y-67179048D01*
X135330477Y-67512381D02*
X135378096Y-67536190D01*
X135473334Y-67536190D01*
X135520953Y-67512381D01*
X135544763Y-67464762D01*
X135544763Y-67440952D01*
X135520953Y-67393333D01*
X135473334Y-67369524D01*
X135401906Y-67369524D01*
X135354287Y-67345714D01*
X135330477Y-67298095D01*
X135330477Y-67274286D01*
X135354287Y-67226667D01*
X135401906Y-67202857D01*
X135473334Y-67202857D01*
X135520953Y-67226667D01*
X135973334Y-67512381D02*
X135925715Y-67536190D01*
X135830477Y-67536190D01*
X135782858Y-67512381D01*
X135759049Y-67488571D01*
X135735239Y-67440952D01*
X135735239Y-67298095D01*
X135759049Y-67250476D01*
X135782858Y-67226667D01*
X135830477Y-67202857D01*
X135925715Y-67202857D01*
X135973334Y-67226667D01*
X136449524Y-67536190D02*
X136163810Y-67536190D01*
X136306667Y-67536190D02*
X136306667Y-67036190D01*
X136259048Y-67107619D01*
X136211429Y-67155238D01*
X136163810Y-67179048D01*
X135509048Y-46716190D02*
X135794762Y-46716190D01*
X135651905Y-47216190D02*
X135651905Y-46716190D01*
X135937619Y-46763810D02*
X135961429Y-46740000D01*
X136009048Y-46716190D01*
X136128095Y-46716190D01*
X136175714Y-46740000D01*
X136199524Y-46763810D01*
X136223333Y-46811429D01*
X136223333Y-46859048D01*
X136199524Y-46930476D01*
X135913810Y-47216190D01*
X136223333Y-47216190D01*
X133266667Y-47216190D02*
X133100000Y-46978095D01*
X132980953Y-47216190D02*
X132980953Y-46716190D01*
X133171429Y-46716190D01*
X133219048Y-46740000D01*
X133242857Y-46763810D01*
X133266667Y-46811429D01*
X133266667Y-46882857D01*
X133242857Y-46930476D01*
X133219048Y-46954286D01*
X133171429Y-46978095D01*
X132980953Y-46978095D01*
X133457143Y-46763810D02*
X133480953Y-46740000D01*
X133528572Y-46716190D01*
X133647619Y-46716190D01*
X133695238Y-46740000D01*
X133719048Y-46763810D01*
X133742857Y-46811429D01*
X133742857Y-46859048D01*
X133719048Y-46930476D01*
X133433334Y-47216190D01*
X133742857Y-47216190D01*
X130262381Y-47192381D02*
X130310000Y-47216190D01*
X130405238Y-47216190D01*
X130452857Y-47192381D01*
X130476667Y-47144762D01*
X130476667Y-47120952D01*
X130452857Y-47073333D01*
X130405238Y-47049524D01*
X130333810Y-47049524D01*
X130286191Y-47025714D01*
X130262381Y-46978095D01*
X130262381Y-46954286D01*
X130286191Y-46906667D01*
X130333810Y-46882857D01*
X130405238Y-46882857D01*
X130452857Y-46906667D01*
X130667143Y-47192381D02*
X130714762Y-47216190D01*
X130810000Y-47216190D01*
X130857619Y-47192381D01*
X130881429Y-47144762D01*
X130881429Y-47120952D01*
X130857619Y-47073333D01*
X130810000Y-47049524D01*
X130738572Y-47049524D01*
X130690953Y-47025714D01*
X130667143Y-46978095D01*
X130667143Y-46954286D01*
X130690953Y-46906667D01*
X130738572Y-46882857D01*
X130810000Y-46882857D01*
X130857619Y-46906667D01*
X131357619Y-47216190D02*
X131071905Y-47216190D01*
X131214762Y-47216190D02*
X131214762Y-46716190D01*
X131167143Y-46787619D01*
X131119524Y-46835238D01*
X131071905Y-46859048D01*
X128150953Y-47192381D02*
X128103334Y-47216190D01*
X128008096Y-47216190D01*
X127960477Y-47192381D01*
X127936668Y-47168571D01*
X127912858Y-47120952D01*
X127912858Y-46978095D01*
X127936668Y-46930476D01*
X127960477Y-46906667D01*
X128008096Y-46882857D01*
X128103334Y-46882857D01*
X128150953Y-46906667D01*
X128627143Y-47216190D02*
X128341429Y-47216190D01*
X128484286Y-47216190D02*
X128484286Y-46716190D01*
X128436667Y-46787619D01*
X128389048Y-46835238D01*
X128341429Y-46859048D01*
X125491906Y-47216190D02*
X125491906Y-46882857D01*
X125491906Y-46716190D02*
X125468096Y-46740000D01*
X125491906Y-46763810D01*
X125515715Y-46740000D01*
X125491906Y-46716190D01*
X125491906Y-46763810D01*
X125991905Y-47216190D02*
X125706191Y-47216190D01*
X125849048Y-47216190D02*
X125849048Y-46716190D01*
X125801429Y-46787619D01*
X125753810Y-46835238D01*
X125706191Y-46859048D01*
X122511429Y-47216190D02*
X122511429Y-46882857D01*
X122511429Y-46930476D02*
X122535238Y-46906667D01*
X122582857Y-46882857D01*
X122654286Y-46882857D01*
X122701905Y-46906667D01*
X122725714Y-46954286D01*
X122725714Y-47216190D01*
X122725714Y-46954286D02*
X122749524Y-46906667D01*
X122797143Y-46882857D01*
X122868571Y-46882857D01*
X122916191Y-46906667D01*
X122940000Y-46954286D01*
X122940000Y-47216190D01*
X123249524Y-47216190D02*
X123201905Y-47192381D01*
X123178096Y-47168571D01*
X123154286Y-47120952D01*
X123154286Y-46978095D01*
X123178096Y-46930476D01*
X123201905Y-46906667D01*
X123249524Y-46882857D01*
X123320953Y-46882857D01*
X123368572Y-46906667D01*
X123392381Y-46930476D01*
X123416191Y-46978095D01*
X123416191Y-47120952D01*
X123392381Y-47168571D01*
X123368572Y-47192381D01*
X123320953Y-47216190D01*
X123249524Y-47216190D01*
X123892381Y-47216190D02*
X123606667Y-47216190D01*
X123749524Y-47216190D02*
X123749524Y-46716190D01*
X123701905Y-46787619D01*
X123654286Y-46835238D01*
X123606667Y-46859048D01*
X115189048Y-46716190D02*
X115474762Y-46716190D01*
X115331905Y-47216190D02*
X115331905Y-46716190D01*
X115593810Y-46716190D02*
X115903333Y-46716190D01*
X115736667Y-46906667D01*
X115808095Y-46906667D01*
X115855714Y-46930476D01*
X115879524Y-46954286D01*
X115903333Y-47001905D01*
X115903333Y-47120952D01*
X115879524Y-47168571D01*
X115855714Y-47192381D01*
X115808095Y-47216190D01*
X115665238Y-47216190D01*
X115617619Y-47192381D01*
X115593810Y-47168571D01*
X112946667Y-47216190D02*
X112780000Y-46978095D01*
X112660953Y-47216190D02*
X112660953Y-46716190D01*
X112851429Y-46716190D01*
X112899048Y-46740000D01*
X112922857Y-46763810D01*
X112946667Y-46811429D01*
X112946667Y-46882857D01*
X112922857Y-46930476D01*
X112899048Y-46954286D01*
X112851429Y-46978095D01*
X112660953Y-46978095D01*
X113113334Y-46716190D02*
X113422857Y-46716190D01*
X113256191Y-46906667D01*
X113327619Y-46906667D01*
X113375238Y-46930476D01*
X113399048Y-46954286D01*
X113422857Y-47001905D01*
X113422857Y-47120952D01*
X113399048Y-47168571D01*
X113375238Y-47192381D01*
X113327619Y-47216190D01*
X113184762Y-47216190D01*
X113137143Y-47192381D01*
X113113334Y-47168571D01*
X143474286Y-67488571D02*
X143450476Y-67512381D01*
X143379048Y-67536190D01*
X143331429Y-67536190D01*
X143260000Y-67512381D01*
X143212381Y-67464762D01*
X143188572Y-67417143D01*
X143164762Y-67321905D01*
X143164762Y-67250476D01*
X143188572Y-67155238D01*
X143212381Y-67107619D01*
X143260000Y-67060000D01*
X143331429Y-67036190D01*
X143379048Y-67036190D01*
X143450476Y-67060000D01*
X143474286Y-67083810D01*
X143617143Y-67036190D02*
X143902857Y-67036190D01*
X143760000Y-67536190D02*
X143760000Y-67036190D01*
X140874762Y-67488571D02*
X140850952Y-67512381D01*
X140779524Y-67536190D01*
X140731905Y-67536190D01*
X140660476Y-67512381D01*
X140612857Y-67464762D01*
X140589048Y-67417143D01*
X140565238Y-67321905D01*
X140565238Y-67250476D01*
X140589048Y-67155238D01*
X140612857Y-67107619D01*
X140660476Y-67060000D01*
X140731905Y-67036190D01*
X140779524Y-67036190D01*
X140850952Y-67060000D01*
X140874762Y-67083810D01*
X141374762Y-67536190D02*
X141208095Y-67298095D01*
X141089048Y-67536190D02*
X141089048Y-67036190D01*
X141279524Y-67036190D01*
X141327143Y-67060000D01*
X141350952Y-67083810D01*
X141374762Y-67131429D01*
X141374762Y-67202857D01*
X141350952Y-67250476D01*
X141327143Y-67274286D01*
X141279524Y-67298095D01*
X141089048Y-67298095D01*
X122737619Y-67036190D02*
X122737619Y-67440952D01*
X122761428Y-67488571D01*
X122785238Y-67512381D01*
X122832857Y-67536190D01*
X122928095Y-67536190D01*
X122975714Y-67512381D01*
X122999523Y-67488571D01*
X123023333Y-67440952D01*
X123023333Y-67036190D01*
X123261429Y-67345714D02*
X123642381Y-67345714D01*
X123451905Y-67536190D02*
X123451905Y-67155238D01*
X120197619Y-67036190D02*
X120197619Y-67440952D01*
X120221428Y-67488571D01*
X120245238Y-67512381D01*
X120292857Y-67536190D01*
X120388095Y-67536190D01*
X120435714Y-67512381D01*
X120459523Y-67488571D01*
X120483333Y-67440952D01*
X120483333Y-67036190D01*
X120721429Y-67345714D02*
X121102381Y-67345714D01*
X118026667Y-67536190D02*
X117860000Y-67298095D01*
X117740953Y-67536190D02*
X117740953Y-67036190D01*
X117931429Y-67036190D01*
X117979048Y-67060000D01*
X118002857Y-67083810D01*
X118026667Y-67131429D01*
X118026667Y-67202857D01*
X118002857Y-67250476D01*
X117979048Y-67274286D01*
X117931429Y-67298095D01*
X117740953Y-67298095D01*
X118502857Y-67536190D02*
X118217143Y-67536190D01*
X118360000Y-67536190D02*
X118360000Y-67036190D01*
X118312381Y-67107619D01*
X118264762Y-67155238D01*
X118217143Y-67179048D01*
X115189048Y-67036190D02*
X115474762Y-67036190D01*
X115331905Y-67536190D02*
X115331905Y-67036190D01*
X115903333Y-67536190D02*
X115617619Y-67536190D01*
X115760476Y-67536190D02*
X115760476Y-67036190D01*
X115712857Y-67107619D01*
X115665238Y-67155238D01*
X115617619Y-67179048D01*
X149336192Y-60686190D02*
X149645715Y-60686190D01*
X149479049Y-60876667D01*
X149550477Y-60876667D01*
X149598096Y-60900476D01*
X149621906Y-60924286D01*
X149645715Y-60971905D01*
X149645715Y-61090952D01*
X149621906Y-61138571D01*
X149598096Y-61162381D01*
X149550477Y-61186190D01*
X149407620Y-61186190D01*
X149360001Y-61162381D01*
X149336192Y-61138571D01*
X149860001Y-61138571D02*
X149883810Y-61162381D01*
X149860001Y-61186190D01*
X149836191Y-61162381D01*
X149860001Y-61138571D01*
X149860001Y-61186190D01*
X150050477Y-60686190D02*
X150360000Y-60686190D01*
X150193334Y-60876667D01*
X150264762Y-60876667D01*
X150312381Y-60900476D01*
X150336191Y-60924286D01*
X150360000Y-60971905D01*
X150360000Y-61090952D01*
X150336191Y-61138571D01*
X150312381Y-61162381D01*
X150264762Y-61186190D01*
X150121905Y-61186190D01*
X150074286Y-61162381D01*
X150050477Y-61138571D01*
X148800476Y-58622381D02*
X148871905Y-58646190D01*
X148990952Y-58646190D01*
X149038571Y-58622381D01*
X149062381Y-58598571D01*
X149086190Y-58550952D01*
X149086190Y-58503333D01*
X149062381Y-58455714D01*
X149038571Y-58431905D01*
X148990952Y-58408095D01*
X148895714Y-58384286D01*
X148848095Y-58360476D01*
X148824286Y-58336667D01*
X148800476Y-58289048D01*
X148800476Y-58241429D01*
X148824286Y-58193810D01*
X148848095Y-58170000D01*
X148895714Y-58146190D01*
X149014762Y-58146190D01*
X149086190Y-58170000D01*
X149252857Y-58146190D02*
X149371904Y-58646190D01*
X149467142Y-58289048D01*
X149562380Y-58646190D01*
X149681428Y-58146190D01*
X149871905Y-58646190D02*
X149871905Y-58146190D01*
X149990952Y-58146190D01*
X150062381Y-58170000D01*
X150110000Y-58217619D01*
X150133809Y-58265238D01*
X150157619Y-58360476D01*
X150157619Y-58431905D01*
X150133809Y-58527143D01*
X150110000Y-58574762D01*
X150062381Y-58622381D01*
X149990952Y-58646190D01*
X149871905Y-58646190D01*
X150371905Y-58646190D02*
X150371905Y-58146190D01*
X150705238Y-58146190D02*
X150800476Y-58146190D01*
X150848095Y-58170000D01*
X150895714Y-58217619D01*
X150919523Y-58312857D01*
X150919523Y-58479524D01*
X150895714Y-58574762D01*
X150848095Y-58622381D01*
X150800476Y-58646190D01*
X150705238Y-58646190D01*
X150657619Y-58622381D01*
X150610000Y-58574762D01*
X150586190Y-58479524D01*
X150586190Y-58312857D01*
X150610000Y-58217619D01*
X150657619Y-58170000D01*
X150705238Y-58146190D01*
X148729048Y-56082381D02*
X148800477Y-56106190D01*
X148919524Y-56106190D01*
X148967143Y-56082381D01*
X148990953Y-56058571D01*
X149014762Y-56010952D01*
X149014762Y-55963333D01*
X148990953Y-55915714D01*
X148967143Y-55891905D01*
X148919524Y-55868095D01*
X148824286Y-55844286D01*
X148776667Y-55820476D01*
X148752858Y-55796667D01*
X148729048Y-55749048D01*
X148729048Y-55701429D01*
X148752858Y-55653810D01*
X148776667Y-55630000D01*
X148824286Y-55606190D01*
X148943334Y-55606190D01*
X149014762Y-55630000D01*
X149181429Y-55606190D02*
X149300476Y-56106190D01*
X149395714Y-55749048D01*
X149490952Y-56106190D01*
X149610000Y-55606190D01*
X150086191Y-56058571D02*
X150062381Y-56082381D01*
X149990953Y-56106190D01*
X149943334Y-56106190D01*
X149871905Y-56082381D01*
X149824286Y-56034762D01*
X149800477Y-55987143D01*
X149776667Y-55891905D01*
X149776667Y-55820476D01*
X149800477Y-55725238D01*
X149824286Y-55677619D01*
X149871905Y-55630000D01*
X149943334Y-55606190D01*
X149990953Y-55606190D01*
X150062381Y-55630000D01*
X150086191Y-55653810D01*
X150538572Y-56106190D02*
X150300477Y-56106190D01*
X150300477Y-55606190D01*
X150705239Y-56106190D02*
X150705239Y-55606190D01*
X150990953Y-56106190D02*
X150776667Y-55820476D01*
X150990953Y-55606190D02*
X150705239Y-55891905D01*
X149479047Y-53090000D02*
X149431428Y-53066190D01*
X149360000Y-53066190D01*
X149288571Y-53090000D01*
X149240952Y-53137619D01*
X149217143Y-53185238D01*
X149193333Y-53280476D01*
X149193333Y-53351905D01*
X149217143Y-53447143D01*
X149240952Y-53494762D01*
X149288571Y-53542381D01*
X149360000Y-53566190D01*
X149407619Y-53566190D01*
X149479047Y-53542381D01*
X149502857Y-53518571D01*
X149502857Y-53351905D01*
X149407619Y-53351905D01*
X149717143Y-53566190D02*
X149717143Y-53066190D01*
X150002857Y-53566190D01*
X150002857Y-53066190D01*
X150240953Y-53566190D02*
X150240953Y-53066190D01*
X150360000Y-53066190D01*
X150431429Y-53090000D01*
X150479048Y-53137619D01*
X150502857Y-53185238D01*
X150526667Y-53280476D01*
X150526667Y-53351905D01*
X150502857Y-53447143D01*
X150479048Y-53494762D01*
X150431429Y-53542381D01*
X150360000Y-53566190D01*
X150240953Y-53566190D01*
X150606192Y-67036190D02*
X150915715Y-67036190D01*
X150749049Y-67226667D01*
X150820477Y-67226667D01*
X150868096Y-67250476D01*
X150891906Y-67274286D01*
X150915715Y-67321905D01*
X150915715Y-67440952D01*
X150891906Y-67488571D01*
X150868096Y-67512381D01*
X150820477Y-67536190D01*
X150677620Y-67536190D01*
X150630001Y-67512381D01*
X150606192Y-67488571D01*
X151130001Y-67488571D02*
X151153810Y-67512381D01*
X151130001Y-67536190D01*
X151106191Y-67512381D01*
X151130001Y-67488571D01*
X151130001Y-67536190D01*
X151320477Y-67036190D02*
X151630000Y-67036190D01*
X151463334Y-67226667D01*
X151534762Y-67226667D01*
X151582381Y-67250476D01*
X151606191Y-67274286D01*
X151630000Y-67321905D01*
X151630000Y-67440952D01*
X151606191Y-67488571D01*
X151582381Y-67512381D01*
X151534762Y-67536190D01*
X151391905Y-67536190D01*
X151344286Y-67512381D01*
X151320477Y-67488571D01*
X148720952Y-67060000D02*
X148673333Y-67036190D01*
X148601905Y-67036190D01*
X148530476Y-67060000D01*
X148482857Y-67107619D01*
X148459048Y-67155238D01*
X148435238Y-67250476D01*
X148435238Y-67321905D01*
X148459048Y-67417143D01*
X148482857Y-67464762D01*
X148530476Y-67512381D01*
X148601905Y-67536190D01*
X148649524Y-67536190D01*
X148720952Y-67512381D01*
X148744762Y-67488571D01*
X148744762Y-67321905D01*
X148649524Y-67321905D01*
X110454285Y-46692381D02*
X110025714Y-47335238D01*
X110906667Y-47216190D02*
X110740000Y-46978095D01*
X110620953Y-47216190D02*
X110620953Y-46716190D01*
X110811429Y-46716190D01*
X110859048Y-46740000D01*
X110882857Y-46763810D01*
X110906667Y-46811429D01*
X110906667Y-46882857D01*
X110882857Y-46930476D01*
X110859048Y-46954286D01*
X110811429Y-46978095D01*
X110620953Y-46978095D01*
X107426192Y-46716190D02*
X107735715Y-46716190D01*
X107569049Y-46906667D01*
X107640477Y-46906667D01*
X107688096Y-46930476D01*
X107711906Y-46954286D01*
X107735715Y-47001905D01*
X107735715Y-47120952D01*
X107711906Y-47168571D01*
X107688096Y-47192381D01*
X107640477Y-47216190D01*
X107497620Y-47216190D01*
X107450001Y-47192381D01*
X107426192Y-47168571D01*
X107950001Y-47168571D02*
X107973810Y-47192381D01*
X107950001Y-47216190D01*
X107926191Y-47192381D01*
X107950001Y-47168571D01*
X107950001Y-47216190D01*
X108140477Y-46716190D02*
X108450000Y-46716190D01*
X108283334Y-46906667D01*
X108354762Y-46906667D01*
X108402381Y-46930476D01*
X108426191Y-46954286D01*
X108450000Y-47001905D01*
X108450000Y-47120952D01*
X108426191Y-47168571D01*
X108402381Y-47192381D01*
X108354762Y-47216190D01*
X108211905Y-47216190D01*
X108164286Y-47192381D01*
X108140477Y-47168571D01*
X105540952Y-46740000D02*
X105493333Y-46716190D01*
X105421905Y-46716190D01*
X105350476Y-46740000D01*
X105302857Y-46787619D01*
X105279048Y-46835238D01*
X105255238Y-46930476D01*
X105255238Y-47001905D01*
X105279048Y-47097143D01*
X105302857Y-47144762D01*
X105350476Y-47192381D01*
X105421905Y-47216190D01*
X105469524Y-47216190D01*
X105540952Y-47192381D01*
X105564762Y-47168571D01*
X105564762Y-47001905D01*
X105469524Y-47001905D01*
X103000952Y-46740000D02*
X102953333Y-46716190D01*
X102881905Y-46716190D01*
X102810476Y-46740000D01*
X102762857Y-46787619D01*
X102739048Y-46835238D01*
X102715238Y-46930476D01*
X102715238Y-47001905D01*
X102739048Y-47097143D01*
X102762857Y-47144762D01*
X102810476Y-47192381D01*
X102881905Y-47216190D01*
X102929524Y-47216190D01*
X103000952Y-47192381D01*
X103024762Y-47168571D01*
X103024762Y-47001905D01*
X102929524Y-47001905D01*
X150713334Y-46716190D02*
X150880001Y-47216190D01*
X151046667Y-46716190D01*
X151380000Y-46954286D02*
X151451429Y-46978095D01*
X151475238Y-47001905D01*
X151499048Y-47049524D01*
X151499048Y-47120952D01*
X151475238Y-47168571D01*
X151451429Y-47192381D01*
X151403810Y-47216190D01*
X151213334Y-47216190D01*
X151213334Y-46716190D01*
X151380000Y-46716190D01*
X151427619Y-46740000D01*
X151451429Y-46763810D01*
X151475238Y-46811429D01*
X151475238Y-46859048D01*
X151451429Y-46906667D01*
X151427619Y-46930476D01*
X151380000Y-46954286D01*
X151213334Y-46954286D01*
X145954763Y-67036190D02*
X145716668Y-67036190D01*
X145692858Y-67274286D01*
X145716668Y-67250476D01*
X145764287Y-67226667D01*
X145883334Y-67226667D01*
X145930953Y-67250476D01*
X145954763Y-67274286D01*
X145978572Y-67321905D01*
X145978572Y-67440952D01*
X145954763Y-67488571D01*
X145930953Y-67512381D01*
X145883334Y-67536190D01*
X145764287Y-67536190D01*
X145716668Y-67512381D01*
X145692858Y-67488571D01*
X146121429Y-67036190D02*
X146288096Y-67536190D01*
X146454762Y-67036190D01*
X102596190Y-57780952D02*
X103000952Y-57780952D01*
X103048571Y-57757143D01*
X103072381Y-57733333D01*
X103096190Y-57685714D01*
X103096190Y-57590476D01*
X103072381Y-57542857D01*
X103048571Y-57519048D01*
X103000952Y-57495238D01*
X102596190Y-57495238D01*
X103072381Y-57280952D02*
X103096190Y-57209523D01*
X103096190Y-57090476D01*
X103072381Y-57042857D01*
X103048571Y-57019047D01*
X103000952Y-56995238D01*
X102953333Y-56995238D01*
X102905714Y-57019047D01*
X102881905Y-57042857D01*
X102858095Y-57090476D01*
X102834286Y-57185714D01*
X102810476Y-57233333D01*
X102786667Y-57257142D01*
X102739048Y-57280952D01*
X102691429Y-57280952D01*
X102643810Y-57257142D01*
X102620000Y-57233333D01*
X102596190Y-57185714D01*
X102596190Y-57066666D01*
X102620000Y-56995238D01*
X102834286Y-56614286D02*
X102858095Y-56542857D01*
X102881905Y-56519048D01*
X102929524Y-56495238D01*
X103000952Y-56495238D01*
X103048571Y-56519048D01*
X103072381Y-56542857D01*
X103096190Y-56590476D01*
X103096190Y-56780952D01*
X102596190Y-56780952D01*
X102596190Y-56614286D01*
X102620000Y-56566667D01*
X102643810Y-56542857D01*
X102691429Y-56519048D01*
X102739048Y-56519048D01*
X102786667Y-56542857D01*
X102810476Y-56566667D01*
X102834286Y-56614286D01*
X102834286Y-56780952D01*
X158380953Y-47426190D02*
X158380953Y-46926190D01*
X158571429Y-46926190D01*
X158619048Y-46950000D01*
X158642857Y-46973810D01*
X158666667Y-47021429D01*
X158666667Y-47092857D01*
X158642857Y-47140476D01*
X158619048Y-47164286D01*
X158571429Y-47188095D01*
X158380953Y-47188095D01*
X159142857Y-47426190D02*
X158857143Y-47426190D01*
X159000000Y-47426190D02*
X159000000Y-46926190D01*
X158952381Y-46997619D01*
X158904762Y-47045238D01*
X158857143Y-47069048D01*
X126956190Y-75804047D02*
X126456190Y-75804047D01*
X126456190Y-75613571D01*
X126480000Y-75565952D01*
X126503810Y-75542143D01*
X126551429Y-75518333D01*
X126622857Y-75518333D01*
X126670476Y-75542143D01*
X126694286Y-75565952D01*
X126718095Y-75613571D01*
X126718095Y-75804047D01*
X126622857Y-75089762D02*
X126956190Y-75089762D01*
X126432381Y-75208809D02*
X126789524Y-75327857D01*
X126789524Y-75018333D01*
X146006190Y-76509047D02*
X145506190Y-76509047D01*
X145506190Y-76318571D01*
X145530000Y-76270952D01*
X145553810Y-76247143D01*
X145601429Y-76223333D01*
X145672857Y-76223333D01*
X145720476Y-76247143D01*
X145744286Y-76270952D01*
X145768095Y-76318571D01*
X145768095Y-76509047D01*
X145553810Y-76032857D02*
X145530000Y-76009047D01*
X145506190Y-75961428D01*
X145506190Y-75842381D01*
X145530000Y-75794762D01*
X145553810Y-75770952D01*
X145601429Y-75747143D01*
X145649048Y-75747143D01*
X145720476Y-75770952D01*
X146006190Y-76056666D01*
X146006190Y-75747143D01*
X111081190Y-75874047D02*
X110581190Y-75874047D01*
X110581190Y-75683571D01*
X110605000Y-75635952D01*
X110628810Y-75612143D01*
X110676429Y-75588333D01*
X110747857Y-75588333D01*
X110795476Y-75612143D01*
X110819286Y-75635952D01*
X110843095Y-75683571D01*
X110843095Y-75874047D01*
X110581190Y-75421666D02*
X110581190Y-75112143D01*
X110771667Y-75278809D01*
X110771667Y-75207381D01*
X110795476Y-75159762D01*
X110819286Y-75135952D01*
X110866905Y-75112143D01*
X110985952Y-75112143D01*
X111033571Y-75135952D01*
X111057381Y-75159762D01*
X111081190Y-75207381D01*
X111081190Y-75350238D01*
X111057381Y-75397857D01*
X111033571Y-75421666D01*
D11*
X129222667Y-56296381D02*
X128889333Y-55820190D01*
X128651238Y-56296381D02*
X128651238Y-55296381D01*
X129032191Y-55296381D01*
X129127429Y-55344000D01*
X129175048Y-55391619D01*
X129222667Y-55486857D01*
X129222667Y-55629714D01*
X129175048Y-55724952D01*
X129127429Y-55772571D01*
X129032191Y-55820190D01*
X128651238Y-55820190D01*
X129651238Y-55772571D02*
X129984572Y-55772571D01*
X130127429Y-56296381D02*
X129651238Y-56296381D01*
X129651238Y-55296381D01*
X130127429Y-55296381D01*
X130889334Y-55772571D02*
X130556000Y-55772571D01*
X130556000Y-56296381D02*
X130556000Y-55296381D01*
X131032191Y-55296381D01*
X131556000Y-55296381D02*
X131556000Y-55534476D01*
X131317905Y-55439238D02*
X131556000Y-55534476D01*
X131794096Y-55439238D01*
X131413143Y-55724952D02*
X131556000Y-55534476D01*
X131698858Y-55724952D01*
X132317905Y-55296381D02*
X132317905Y-55534476D01*
X132079810Y-55439238D02*
X132317905Y-55534476D01*
X132556001Y-55439238D01*
X132175048Y-55724952D02*
X132317905Y-55534476D01*
X132460763Y-55724952D01*
M02*
