G04 #@! TF.FileFunction,Copper,L1,Top,Signal*
%FSLAX46Y46*%
G04 Gerber Fmt 4.6, Leading zero omitted, Abs format (unit mm)*
G04 Created by KiCad (PCBNEW 4.0.7) date 12/24/17 13:22:17*
%MOMM*%
%LPD*%
G01*
G04 APERTURE LIST*
%ADD10C,0.100000*%
%ADD11C,1.524000*%
%ADD12R,1.700000X1.700000*%
%ADD13O,1.700000X1.700000*%
%ADD14R,0.850000X0.850000*%
%ADD15C,1.400000*%
%ADD16C,0.250000*%
%ADD17C,0.254000*%
G04 APERTURE END LIST*
D10*
D11*
X102870000Y-64770000D03*
X105410000Y-64770000D03*
X107950000Y-64770000D03*
X110490000Y-64770000D03*
X113030000Y-64770000D03*
X115570000Y-64770000D03*
X118110000Y-64770000D03*
X120650000Y-64770000D03*
X123190000Y-64770000D03*
X125730000Y-64770000D03*
X128270000Y-64770000D03*
X130810000Y-64770000D03*
X133350000Y-64770000D03*
X135890000Y-64770000D03*
X138430000Y-64770000D03*
X140970000Y-64770000D03*
X143510000Y-64770000D03*
X146050000Y-64770000D03*
X148590000Y-64770000D03*
X151130000Y-64770000D03*
X151130000Y-49530000D03*
X148590000Y-49530000D03*
X146050000Y-49530000D03*
X143510000Y-49530000D03*
X140970000Y-49530000D03*
X138430000Y-49530000D03*
X135890000Y-49530000D03*
X133350000Y-49530000D03*
X130810000Y-49530000D03*
X128270000Y-49530000D03*
X125730000Y-49530000D03*
X123190000Y-49530000D03*
X120650000Y-49530000D03*
X118110000Y-49530000D03*
X115570000Y-49530000D03*
X113030000Y-49530000D03*
X110490000Y-49530000D03*
X107950000Y-49530000D03*
X105410000Y-49530000D03*
X102870000Y-49530000D03*
D12*
X157480000Y-49530000D03*
D13*
X160020000Y-49530000D03*
X157480000Y-52070000D03*
X160020000Y-52070000D03*
X157480000Y-54610000D03*
X160020000Y-54610000D03*
X157480000Y-57150000D03*
X160020000Y-57150000D03*
X157480000Y-59690000D03*
X160020000Y-59690000D03*
X157480000Y-62230000D03*
X160020000Y-62230000D03*
X157480000Y-64770000D03*
X160020000Y-64770000D03*
D12*
X124460000Y-71120000D03*
D13*
X121920000Y-71120000D03*
X119380000Y-71120000D03*
X116840000Y-71120000D03*
D12*
X143510000Y-71755000D03*
D13*
X140970000Y-71755000D03*
X138430000Y-71755000D03*
X135890000Y-71755000D03*
D12*
X108585000Y-71120000D03*
D13*
X106045000Y-71120000D03*
X103505000Y-71120000D03*
D14*
X130556000Y-57404000D03*
D15*
X168910000Y-59690000D03*
X163830000Y-64770000D03*
X139065000Y-62230000D03*
X139065000Y-54610000D03*
X136525000Y-61595000D03*
X136525000Y-57150000D03*
X115399475Y-52448796D03*
X129540000Y-68072000D03*
X112691034Y-52087436D03*
X131064000Y-71628000D03*
X133604000Y-52324000D03*
X106172000Y-68580000D03*
X136144000Y-51816000D03*
X103632000Y-68072000D03*
D16*
X163830000Y-64770000D02*
X168910000Y-59690000D01*
X139065000Y-62230000D02*
X139065000Y-54610000D01*
X136525000Y-57150000D02*
X136525000Y-61595000D01*
X129540000Y-67945000D02*
X129540000Y-62747008D01*
X129540000Y-62747008D02*
X113194470Y-62747008D01*
X113194470Y-62747008D02*
X112361891Y-61914429D01*
X112361891Y-61914429D02*
X112361891Y-53866163D01*
X112361891Y-53866163D02*
X113779258Y-52448796D01*
X113779258Y-52448796D02*
X115399475Y-52448796D01*
X129540000Y-68072000D02*
X129540000Y-66548000D01*
X111991035Y-52787435D02*
X112691034Y-52087436D01*
X110260620Y-54517850D02*
X111991035Y-52787435D01*
X127000000Y-63500000D02*
X112084071Y-63500000D01*
X110260620Y-61676549D02*
X110260620Y-54517850D01*
X112084071Y-63500000D02*
X110260620Y-61676549D01*
X127000000Y-63422905D02*
X127000000Y-67564000D01*
X130364001Y-70928001D02*
X131064000Y-71628000D01*
X127000000Y-67564000D02*
X130364001Y-70928001D01*
X132904001Y-51624001D02*
X133604000Y-52324000D01*
X113183035Y-51062435D02*
X113420914Y-51300314D01*
X113420914Y-51300314D02*
X132580314Y-51300314D01*
X112199033Y-51062435D02*
X113183035Y-51062435D01*
X109304762Y-65024000D02*
X109304762Y-53956706D01*
X109304762Y-53956706D02*
X112199033Y-51062435D01*
X132580314Y-51300314D02*
X132904001Y-51624001D01*
X109304762Y-65024000D02*
X109402999Y-64925763D01*
X107272762Y-67056000D02*
X109304762Y-65024000D01*
X106680000Y-67056000D02*
X107272762Y-67056000D01*
X106172000Y-67564000D02*
X106680000Y-67056000D01*
X106172000Y-68580000D02*
X106172000Y-67564000D01*
X106045000Y-70485000D02*
X106045000Y-71120000D01*
X136144000Y-51816000D02*
X137160000Y-50800000D01*
X137160000Y-50800000D02*
X137160000Y-46736000D01*
X137160000Y-46736000D02*
X136144000Y-45720000D01*
X136144000Y-45720000D02*
X106680000Y-45720000D01*
X106680000Y-45720000D02*
X104140000Y-48260000D01*
X104140000Y-48260000D02*
X104140000Y-66040000D01*
X104140000Y-66040000D02*
X103632000Y-66548000D01*
X103632000Y-66548000D02*
X103632000Y-68072000D01*
D17*
G36*
X106142599Y-45182599D02*
X103602599Y-47722599D01*
X103437852Y-47969161D01*
X103385812Y-48230780D01*
X103077698Y-48120856D01*
X102522632Y-48148638D01*
X102138857Y-48307603D01*
X102069392Y-48549787D01*
X102870000Y-49350395D01*
X102884143Y-49336253D01*
X103063748Y-49515858D01*
X103049605Y-49530000D01*
X103063748Y-49544143D01*
X102884143Y-49723748D01*
X102870000Y-49709605D01*
X102069392Y-50510213D01*
X102138857Y-50752397D01*
X102662302Y-50939144D01*
X103217368Y-50911362D01*
X103380000Y-50843998D01*
X103380000Y-63469121D01*
X103149100Y-63373243D01*
X102593339Y-63372758D01*
X102079697Y-63584990D01*
X101686371Y-63977630D01*
X101473243Y-64490900D01*
X101472758Y-65046661D01*
X101684990Y-65560303D01*
X102077630Y-65953629D01*
X102590900Y-66166757D01*
X102990025Y-66167105D01*
X102929852Y-66257161D01*
X102872000Y-66548000D01*
X102872000Y-66944345D01*
X102500902Y-67314796D01*
X102297232Y-67805287D01*
X102296769Y-68336383D01*
X102499582Y-68827229D01*
X102874796Y-69203098D01*
X103365287Y-69406768D01*
X103896383Y-69407231D01*
X104387229Y-69204418D01*
X104763098Y-68829204D01*
X104836937Y-68651380D01*
X104836769Y-68844383D01*
X105039582Y-69335229D01*
X105414796Y-69711098D01*
X105460227Y-69729963D01*
X104994946Y-70040853D01*
X104775000Y-70370026D01*
X104555054Y-70040853D01*
X104073285Y-69718946D01*
X103505000Y-69605907D01*
X102936715Y-69718946D01*
X102454946Y-70040853D01*
X102133039Y-70522622D01*
X102020000Y-71090907D01*
X102020000Y-71149093D01*
X102133039Y-71717378D01*
X102454946Y-72199147D01*
X102936715Y-72521054D01*
X103505000Y-72634093D01*
X104073285Y-72521054D01*
X104555054Y-72199147D01*
X104775000Y-71869974D01*
X104994946Y-72199147D01*
X105476715Y-72521054D01*
X106045000Y-72634093D01*
X106613285Y-72521054D01*
X107095054Y-72199147D01*
X107124403Y-72155223D01*
X107196673Y-72329698D01*
X107375301Y-72508327D01*
X107608690Y-72605000D01*
X108299250Y-72605000D01*
X108458000Y-72446250D01*
X108458000Y-71247000D01*
X108712000Y-71247000D01*
X108712000Y-72446250D01*
X108870750Y-72605000D01*
X109561310Y-72605000D01*
X109794699Y-72508327D01*
X109973327Y-72329698D01*
X110070000Y-72096309D01*
X110070000Y-71405750D01*
X109911250Y-71247000D01*
X108712000Y-71247000D01*
X108458000Y-71247000D01*
X108438000Y-71247000D01*
X108438000Y-71090907D01*
X115355000Y-71090907D01*
X115355000Y-71149093D01*
X115468039Y-71717378D01*
X115789946Y-72199147D01*
X116271715Y-72521054D01*
X116840000Y-72634093D01*
X117408285Y-72521054D01*
X117890054Y-72199147D01*
X118110000Y-71869974D01*
X118329946Y-72199147D01*
X118811715Y-72521054D01*
X119380000Y-72634093D01*
X119948285Y-72521054D01*
X120430054Y-72199147D01*
X120657702Y-71858447D01*
X120724817Y-72001358D01*
X121153076Y-72391645D01*
X121563110Y-72561476D01*
X121793000Y-72440155D01*
X121793000Y-71247000D01*
X121773000Y-71247000D01*
X121773000Y-70993000D01*
X121793000Y-70993000D01*
X121793000Y-69799845D01*
X122047000Y-69799845D01*
X122047000Y-70993000D01*
X122067000Y-70993000D01*
X122067000Y-71247000D01*
X122047000Y-71247000D01*
X122047000Y-72440155D01*
X122276890Y-72561476D01*
X122686924Y-72391645D01*
X122989937Y-72115499D01*
X123006838Y-72205317D01*
X123145910Y-72421441D01*
X123358110Y-72566431D01*
X123610000Y-72617440D01*
X125310000Y-72617440D01*
X125545317Y-72573162D01*
X125761441Y-72434090D01*
X125906431Y-72221890D01*
X125957440Y-71970000D01*
X125957440Y-70270000D01*
X125913162Y-70034683D01*
X125774090Y-69818559D01*
X125561890Y-69673569D01*
X125310000Y-69622560D01*
X123610000Y-69622560D01*
X123374683Y-69666838D01*
X123158559Y-69805910D01*
X123013569Y-70018110D01*
X122991699Y-70126107D01*
X122686924Y-69848355D01*
X122276890Y-69678524D01*
X122047000Y-69799845D01*
X121793000Y-69799845D01*
X121563110Y-69678524D01*
X121153076Y-69848355D01*
X120724817Y-70238642D01*
X120657702Y-70381553D01*
X120430054Y-70040853D01*
X119948285Y-69718946D01*
X119380000Y-69605907D01*
X118811715Y-69718946D01*
X118329946Y-70040853D01*
X118110000Y-70370026D01*
X117890054Y-70040853D01*
X117408285Y-69718946D01*
X116840000Y-69605907D01*
X116271715Y-69718946D01*
X115789946Y-70040853D01*
X115468039Y-70522622D01*
X115355000Y-71090907D01*
X108438000Y-71090907D01*
X108438000Y-70993000D01*
X108458000Y-70993000D01*
X108458000Y-69793750D01*
X108712000Y-69793750D01*
X108712000Y-70993000D01*
X109911250Y-70993000D01*
X110070000Y-70834250D01*
X110070000Y-70143691D01*
X109973327Y-69910302D01*
X109794699Y-69731673D01*
X109561310Y-69635000D01*
X108870750Y-69635000D01*
X108712000Y-69793750D01*
X108458000Y-69793750D01*
X108299250Y-69635000D01*
X107608690Y-69635000D01*
X107375301Y-69731673D01*
X107196673Y-69910302D01*
X107124403Y-70084777D01*
X107095054Y-70040853D01*
X106727206Y-69795066D01*
X106927229Y-69712418D01*
X107303098Y-69337204D01*
X107506768Y-68846713D01*
X107507231Y-68315617D01*
X107304418Y-67824771D01*
X107291868Y-67812199D01*
X107563601Y-67758148D01*
X107810163Y-67593401D01*
X109573891Y-65829673D01*
X109697630Y-65953629D01*
X110210900Y-66166757D01*
X110766661Y-66167242D01*
X111280303Y-65955010D01*
X111673629Y-65562370D01*
X111759949Y-65354488D01*
X111844990Y-65560303D01*
X112237630Y-65953629D01*
X112750900Y-66166757D01*
X113306661Y-66167242D01*
X113820303Y-65955010D01*
X114213629Y-65562370D01*
X114299949Y-65354488D01*
X114384990Y-65560303D01*
X114777630Y-65953629D01*
X115290900Y-66166757D01*
X115846661Y-66167242D01*
X116360303Y-65955010D01*
X116753629Y-65562370D01*
X116839949Y-65354488D01*
X116924990Y-65560303D01*
X117317630Y-65953629D01*
X117830900Y-66166757D01*
X118386661Y-66167242D01*
X118900303Y-65955010D01*
X119293629Y-65562370D01*
X119379949Y-65354488D01*
X119464990Y-65560303D01*
X119857630Y-65953629D01*
X120370900Y-66166757D01*
X120926661Y-66167242D01*
X121440303Y-65955010D01*
X121833629Y-65562370D01*
X121919949Y-65354488D01*
X122004990Y-65560303D01*
X122397630Y-65953629D01*
X122910900Y-66166757D01*
X123466661Y-66167242D01*
X123980303Y-65955010D01*
X124373629Y-65562370D01*
X124459949Y-65354488D01*
X124544990Y-65560303D01*
X124937630Y-65953629D01*
X125450900Y-66166757D01*
X126006661Y-66167242D01*
X126240000Y-66070829D01*
X126240000Y-67564000D01*
X126297852Y-67854839D01*
X126462599Y-68101401D01*
X129729226Y-71368028D01*
X129728769Y-71892383D01*
X129931582Y-72383229D01*
X130306796Y-72759098D01*
X130797287Y-72962768D01*
X131328383Y-72963231D01*
X131819229Y-72760418D01*
X132195098Y-72385204D01*
X132398768Y-71894713D01*
X132398915Y-71725907D01*
X134405000Y-71725907D01*
X134405000Y-71784093D01*
X134518039Y-72352378D01*
X134839946Y-72834147D01*
X135321715Y-73156054D01*
X135890000Y-73269093D01*
X136458285Y-73156054D01*
X136940054Y-72834147D01*
X137160000Y-72504974D01*
X137379946Y-72834147D01*
X137861715Y-73156054D01*
X138430000Y-73269093D01*
X138998285Y-73156054D01*
X139480054Y-72834147D01*
X139707702Y-72493447D01*
X139774817Y-72636358D01*
X140203076Y-73026645D01*
X140613110Y-73196476D01*
X140843000Y-73075155D01*
X140843000Y-71882000D01*
X140823000Y-71882000D01*
X140823000Y-71628000D01*
X140843000Y-71628000D01*
X140843000Y-70434845D01*
X141097000Y-70434845D01*
X141097000Y-71628000D01*
X141117000Y-71628000D01*
X141117000Y-71882000D01*
X141097000Y-71882000D01*
X141097000Y-73075155D01*
X141326890Y-73196476D01*
X141736924Y-73026645D01*
X142039937Y-72750499D01*
X142056838Y-72840317D01*
X142195910Y-73056441D01*
X142408110Y-73201431D01*
X142660000Y-73252440D01*
X144360000Y-73252440D01*
X144595317Y-73208162D01*
X144811441Y-73069090D01*
X144956431Y-72856890D01*
X145007440Y-72605000D01*
X145007440Y-70905000D01*
X144963162Y-70669683D01*
X144824090Y-70453559D01*
X144611890Y-70308569D01*
X144360000Y-70257560D01*
X142660000Y-70257560D01*
X142424683Y-70301838D01*
X142208559Y-70440910D01*
X142063569Y-70653110D01*
X142041699Y-70761107D01*
X141736924Y-70483355D01*
X141326890Y-70313524D01*
X141097000Y-70434845D01*
X140843000Y-70434845D01*
X140613110Y-70313524D01*
X140203076Y-70483355D01*
X139774817Y-70873642D01*
X139707702Y-71016553D01*
X139480054Y-70675853D01*
X138998285Y-70353946D01*
X138430000Y-70240907D01*
X137861715Y-70353946D01*
X137379946Y-70675853D01*
X137160000Y-71005026D01*
X136940054Y-70675853D01*
X136458285Y-70353946D01*
X135890000Y-70240907D01*
X135321715Y-70353946D01*
X134839946Y-70675853D01*
X134518039Y-71157622D01*
X134405000Y-71725907D01*
X132398915Y-71725907D01*
X132399231Y-71363617D01*
X132196418Y-70872771D01*
X131821204Y-70496902D01*
X131330713Y-70293232D01*
X130803574Y-70292772D01*
X129884804Y-69374002D01*
X130295229Y-69204418D01*
X130671098Y-68829204D01*
X130874768Y-68338713D01*
X130875231Y-67807617D01*
X130672418Y-67316771D01*
X130300000Y-66943703D01*
X130300000Y-66070879D01*
X130530900Y-66166757D01*
X131086661Y-66167242D01*
X131600303Y-65955010D01*
X131993629Y-65562370D01*
X132079949Y-65354488D01*
X132164990Y-65560303D01*
X132557630Y-65953629D01*
X133070900Y-66166757D01*
X133626661Y-66167242D01*
X134140303Y-65955010D01*
X134533629Y-65562370D01*
X134619949Y-65354488D01*
X134704990Y-65560303D01*
X135097630Y-65953629D01*
X135610900Y-66166757D01*
X136166661Y-66167242D01*
X136680303Y-65955010D01*
X137073629Y-65562370D01*
X137159949Y-65354488D01*
X137244990Y-65560303D01*
X137637630Y-65953629D01*
X138150900Y-66166757D01*
X138706661Y-66167242D01*
X139220303Y-65955010D01*
X139613629Y-65562370D01*
X139699949Y-65354488D01*
X139784990Y-65560303D01*
X140177630Y-65953629D01*
X140690900Y-66166757D01*
X141246661Y-66167242D01*
X141760303Y-65955010D01*
X142153629Y-65562370D01*
X142239949Y-65354488D01*
X142324990Y-65560303D01*
X142717630Y-65953629D01*
X143230900Y-66166757D01*
X143786661Y-66167242D01*
X144300303Y-65955010D01*
X144693629Y-65562370D01*
X144779949Y-65354488D01*
X144864990Y-65560303D01*
X145257630Y-65953629D01*
X145770900Y-66166757D01*
X146326661Y-66167242D01*
X146840303Y-65955010D01*
X147045457Y-65750213D01*
X147789392Y-65750213D01*
X147858857Y-65992397D01*
X148382302Y-66179144D01*
X148937368Y-66151362D01*
X149321143Y-65992397D01*
X149390608Y-65750213D01*
X148590000Y-64949605D01*
X147789392Y-65750213D01*
X147045457Y-65750213D01*
X147233629Y-65562370D01*
X147313395Y-65370273D01*
X147367603Y-65501143D01*
X147609787Y-65570608D01*
X148410395Y-64770000D01*
X148769605Y-64770000D01*
X149570213Y-65570608D01*
X149812397Y-65501143D01*
X149862509Y-65360682D01*
X149944990Y-65560303D01*
X150337630Y-65953629D01*
X150850900Y-66166757D01*
X151406661Y-66167242D01*
X151920303Y-65955010D01*
X152313629Y-65562370D01*
X152494455Y-65126890D01*
X156038524Y-65126890D01*
X156208355Y-65536924D01*
X156598642Y-65965183D01*
X157123108Y-66211486D01*
X157353000Y-66090819D01*
X157353000Y-64897000D01*
X157607000Y-64897000D01*
X157607000Y-66090819D01*
X157836892Y-66211486D01*
X158361358Y-65965183D01*
X158750000Y-65538729D01*
X159138642Y-65965183D01*
X159663108Y-66211486D01*
X159893000Y-66090819D01*
X159893000Y-64897000D01*
X160147000Y-64897000D01*
X160147000Y-66090819D01*
X160376892Y-66211486D01*
X160901358Y-65965183D01*
X161291645Y-65536924D01*
X161461476Y-65126890D01*
X161340155Y-64897000D01*
X160147000Y-64897000D01*
X159893000Y-64897000D01*
X157607000Y-64897000D01*
X157353000Y-64897000D01*
X156159845Y-64897000D01*
X156038524Y-65126890D01*
X152494455Y-65126890D01*
X152526757Y-65049100D01*
X152527242Y-64493339D01*
X152315010Y-63979697D01*
X151922370Y-63586371D01*
X151409100Y-63373243D01*
X150853339Y-63372758D01*
X150339697Y-63584990D01*
X149946371Y-63977630D01*
X149866605Y-64169727D01*
X149812397Y-64038857D01*
X149570213Y-63969392D01*
X148769605Y-64770000D01*
X148410395Y-64770000D01*
X147609787Y-63969392D01*
X147367603Y-64038857D01*
X147317491Y-64179318D01*
X147235010Y-63979697D01*
X147045432Y-63789787D01*
X147789392Y-63789787D01*
X148590000Y-64590395D01*
X149390608Y-63789787D01*
X149321143Y-63547603D01*
X148797698Y-63360856D01*
X148242632Y-63388638D01*
X147858857Y-63547603D01*
X147789392Y-63789787D01*
X147045432Y-63789787D01*
X146842370Y-63586371D01*
X146329100Y-63373243D01*
X145773339Y-63372758D01*
X145259697Y-63584990D01*
X144866371Y-63977630D01*
X144780051Y-64185512D01*
X144695010Y-63979697D01*
X144302370Y-63586371D01*
X143789100Y-63373243D01*
X143233339Y-63372758D01*
X142719697Y-63584990D01*
X142326371Y-63977630D01*
X142240051Y-64185512D01*
X142155010Y-63979697D01*
X141762370Y-63586371D01*
X141249100Y-63373243D01*
X140693339Y-63372758D01*
X140179697Y-63584990D01*
X139786371Y-63977630D01*
X139700051Y-64185512D01*
X139615010Y-63979697D01*
X139222370Y-63586371D01*
X139171127Y-63565093D01*
X139329383Y-63565231D01*
X139820229Y-63362418D01*
X140196098Y-62987204D01*
X140399768Y-62496713D01*
X140400231Y-61965617D01*
X140197418Y-61474771D01*
X139825000Y-61101703D01*
X139825000Y-55737655D01*
X140196098Y-55367204D01*
X140399768Y-54876713D01*
X140400231Y-54345617D01*
X140197418Y-53854771D01*
X139822204Y-53478902D01*
X139331713Y-53275232D01*
X138800617Y-53274769D01*
X138309771Y-53477582D01*
X137933902Y-53852796D01*
X137730232Y-54343287D01*
X137729769Y-54874383D01*
X137932582Y-55365229D01*
X138305000Y-55738297D01*
X138305000Y-61102345D01*
X137933902Y-61472796D01*
X137859952Y-61650888D01*
X137860231Y-61330617D01*
X137657418Y-60839771D01*
X137285000Y-60466703D01*
X137285000Y-58277655D01*
X137656098Y-57907204D01*
X137859768Y-57416713D01*
X137860231Y-56885617D01*
X137657418Y-56394771D01*
X137282204Y-56018902D01*
X136791713Y-55815232D01*
X136260617Y-55814769D01*
X135769771Y-56017582D01*
X135393902Y-56392796D01*
X135190232Y-56883287D01*
X135189769Y-57414383D01*
X135392582Y-57905229D01*
X135765000Y-58278297D01*
X135765000Y-60467345D01*
X135393902Y-60837796D01*
X135190232Y-61328287D01*
X135189769Y-61859383D01*
X135392582Y-62350229D01*
X135767796Y-62726098D01*
X136258287Y-62929768D01*
X136789383Y-62930231D01*
X137280229Y-62727418D01*
X137656098Y-62352204D01*
X137730048Y-62174112D01*
X137729769Y-62494383D01*
X137932582Y-62985229D01*
X138307796Y-63361098D01*
X138336261Y-63372918D01*
X138153339Y-63372758D01*
X137639697Y-63584990D01*
X137246371Y-63977630D01*
X137160051Y-64185512D01*
X137075010Y-63979697D01*
X136682370Y-63586371D01*
X136169100Y-63373243D01*
X135613339Y-63372758D01*
X135099697Y-63584990D01*
X134706371Y-63977630D01*
X134620051Y-64185512D01*
X134535010Y-63979697D01*
X134142370Y-63586371D01*
X133629100Y-63373243D01*
X133073339Y-63372758D01*
X132559697Y-63584990D01*
X132166371Y-63977630D01*
X132080051Y-64185512D01*
X131995010Y-63979697D01*
X131602370Y-63586371D01*
X131089100Y-63373243D01*
X130533339Y-63372758D01*
X130300000Y-63469171D01*
X130300000Y-62747008D01*
X130242148Y-62456169D01*
X130077401Y-62209607D01*
X129830839Y-62044860D01*
X129540000Y-61987008D01*
X113509272Y-61987008D01*
X113121891Y-61599627D01*
X113121891Y-57689750D01*
X129496000Y-57689750D01*
X129496000Y-57955310D01*
X129592673Y-58188699D01*
X129771302Y-58367327D01*
X130004691Y-58464000D01*
X130270250Y-58464000D01*
X130429000Y-58305250D01*
X130429000Y-57531000D01*
X130683000Y-57531000D01*
X130683000Y-58305250D01*
X130841750Y-58464000D01*
X131107309Y-58464000D01*
X131340698Y-58367327D01*
X131519327Y-58188699D01*
X131616000Y-57955310D01*
X131616000Y-57689750D01*
X131457250Y-57531000D01*
X130683000Y-57531000D01*
X130429000Y-57531000D01*
X129654750Y-57531000D01*
X129496000Y-57689750D01*
X113121891Y-57689750D01*
X113121891Y-56852690D01*
X129496000Y-56852690D01*
X129496000Y-57118250D01*
X129654750Y-57277000D01*
X130429000Y-57277000D01*
X130429000Y-56502750D01*
X130683000Y-56502750D01*
X130683000Y-57277000D01*
X131457250Y-57277000D01*
X131616000Y-57118250D01*
X131616000Y-56852690D01*
X131519327Y-56619301D01*
X131340698Y-56440673D01*
X131107309Y-56344000D01*
X130841750Y-56344000D01*
X130683000Y-56502750D01*
X130429000Y-56502750D01*
X130270250Y-56344000D01*
X130004691Y-56344000D01*
X129771302Y-56440673D01*
X129592673Y-56619301D01*
X129496000Y-56852690D01*
X113121891Y-56852690D01*
X113121891Y-54180965D01*
X114094060Y-53208796D01*
X114271820Y-53208796D01*
X114642271Y-53579894D01*
X115132762Y-53783564D01*
X115663858Y-53784027D01*
X116154704Y-53581214D01*
X116530573Y-53206000D01*
X116734243Y-52715509D01*
X116734706Y-52184413D01*
X116683429Y-52060314D01*
X132265512Y-52060314D01*
X132269226Y-52064028D01*
X132268769Y-52588383D01*
X132471582Y-53079229D01*
X132846796Y-53455098D01*
X133337287Y-53658768D01*
X133868383Y-53659231D01*
X134359229Y-53456418D01*
X134735098Y-53081204D01*
X134938768Y-52590713D01*
X134938938Y-52395417D01*
X135011582Y-52571229D01*
X135386796Y-52947098D01*
X135877287Y-53150768D01*
X136408383Y-53151231D01*
X136899229Y-52948418D01*
X137275098Y-52573204D01*
X137478768Y-52082713D01*
X137478779Y-52070000D01*
X155965907Y-52070000D01*
X156078946Y-52638285D01*
X156400853Y-53120054D01*
X156730026Y-53340000D01*
X156400853Y-53559946D01*
X156078946Y-54041715D01*
X155965907Y-54610000D01*
X156078946Y-55178285D01*
X156400853Y-55660054D01*
X156730026Y-55880000D01*
X156400853Y-56099946D01*
X156078946Y-56581715D01*
X155965907Y-57150000D01*
X156078946Y-57718285D01*
X156400853Y-58200054D01*
X156730026Y-58420000D01*
X156400853Y-58639946D01*
X156078946Y-59121715D01*
X155965907Y-59690000D01*
X156078946Y-60258285D01*
X156400853Y-60740054D01*
X156730026Y-60960000D01*
X156400853Y-61179946D01*
X156078946Y-61661715D01*
X155965907Y-62230000D01*
X156078946Y-62798285D01*
X156400853Y-63280054D01*
X156741553Y-63507702D01*
X156598642Y-63574817D01*
X156208355Y-64003076D01*
X156038524Y-64413110D01*
X156159845Y-64643000D01*
X157353000Y-64643000D01*
X157353000Y-64623000D01*
X157607000Y-64623000D01*
X157607000Y-64643000D01*
X159893000Y-64643000D01*
X159893000Y-64623000D01*
X160147000Y-64623000D01*
X160147000Y-64643000D01*
X161340155Y-64643000D01*
X161461476Y-64413110D01*
X161291645Y-64003076D01*
X160901358Y-63574817D01*
X160758447Y-63507702D01*
X161099147Y-63280054D01*
X161421054Y-62798285D01*
X161534093Y-62230000D01*
X161421054Y-61661715D01*
X161099147Y-61179946D01*
X160769974Y-60960000D01*
X161099147Y-60740054D01*
X161421054Y-60258285D01*
X161534093Y-59690000D01*
X161421054Y-59121715D01*
X161099147Y-58639946D01*
X160769974Y-58420000D01*
X161099147Y-58200054D01*
X161421054Y-57718285D01*
X161534093Y-57150000D01*
X161421054Y-56581715D01*
X161099147Y-56099946D01*
X160769974Y-55880000D01*
X161099147Y-55660054D01*
X161421054Y-55178285D01*
X161534093Y-54610000D01*
X161421054Y-54041715D01*
X161099147Y-53559946D01*
X160769974Y-53340000D01*
X161099147Y-53120054D01*
X161421054Y-52638285D01*
X161534093Y-52070000D01*
X161421054Y-51501715D01*
X161099147Y-51019946D01*
X160769974Y-50800000D01*
X161099147Y-50580054D01*
X161421054Y-50098285D01*
X161534093Y-49530000D01*
X161421054Y-48961715D01*
X161099147Y-48479946D01*
X160617378Y-48158039D01*
X160049093Y-48045000D01*
X159990907Y-48045000D01*
X159422622Y-48158039D01*
X158940853Y-48479946D01*
X158940029Y-48481179D01*
X158933162Y-48444683D01*
X158794090Y-48228559D01*
X158581890Y-48083569D01*
X158330000Y-48032560D01*
X156630000Y-48032560D01*
X156394683Y-48076838D01*
X156178559Y-48215910D01*
X156033569Y-48428110D01*
X155982560Y-48680000D01*
X155982560Y-50380000D01*
X156026838Y-50615317D01*
X156165910Y-50831441D01*
X156378110Y-50976431D01*
X156445541Y-50990086D01*
X156400853Y-51019946D01*
X156078946Y-51501715D01*
X155965907Y-52070000D01*
X137478779Y-52070000D01*
X137479228Y-51555574D01*
X137697401Y-51337401D01*
X137862148Y-51090839D01*
X137914326Y-50828523D01*
X138150900Y-50926757D01*
X138706661Y-50927242D01*
X139220303Y-50715010D01*
X139613629Y-50322370D01*
X139699949Y-50114488D01*
X139784990Y-50320303D01*
X140177630Y-50713629D01*
X140690900Y-50926757D01*
X141246661Y-50927242D01*
X141760303Y-50715010D01*
X142153629Y-50322370D01*
X142239949Y-50114488D01*
X142324990Y-50320303D01*
X142717630Y-50713629D01*
X143230900Y-50926757D01*
X143786661Y-50927242D01*
X144300303Y-50715010D01*
X144693629Y-50322370D01*
X144779949Y-50114488D01*
X144864990Y-50320303D01*
X145257630Y-50713629D01*
X145770900Y-50926757D01*
X146326661Y-50927242D01*
X146840303Y-50715010D01*
X147233629Y-50322370D01*
X147319949Y-50114488D01*
X147404990Y-50320303D01*
X147797630Y-50713629D01*
X148310900Y-50926757D01*
X148866661Y-50927242D01*
X149380303Y-50715010D01*
X149773629Y-50322370D01*
X149859949Y-50114488D01*
X149944990Y-50320303D01*
X150337630Y-50713629D01*
X150850900Y-50926757D01*
X151406661Y-50927242D01*
X151920303Y-50715010D01*
X152313629Y-50322370D01*
X152526757Y-49809100D01*
X152527242Y-49253339D01*
X152315010Y-48739697D01*
X151922370Y-48346371D01*
X151409100Y-48133243D01*
X150853339Y-48132758D01*
X150339697Y-48344990D01*
X149946371Y-48737630D01*
X149860051Y-48945512D01*
X149775010Y-48739697D01*
X149382370Y-48346371D01*
X148869100Y-48133243D01*
X148313339Y-48132758D01*
X147799697Y-48344990D01*
X147406371Y-48737630D01*
X147320051Y-48945512D01*
X147235010Y-48739697D01*
X146842370Y-48346371D01*
X146329100Y-48133243D01*
X145773339Y-48132758D01*
X145259697Y-48344990D01*
X144866371Y-48737630D01*
X144780051Y-48945512D01*
X144695010Y-48739697D01*
X144302370Y-48346371D01*
X143789100Y-48133243D01*
X143233339Y-48132758D01*
X142719697Y-48344990D01*
X142326371Y-48737630D01*
X142240051Y-48945512D01*
X142155010Y-48739697D01*
X141762370Y-48346371D01*
X141249100Y-48133243D01*
X140693339Y-48132758D01*
X140179697Y-48344990D01*
X139786371Y-48737630D01*
X139700051Y-48945512D01*
X139615010Y-48739697D01*
X139222370Y-48346371D01*
X138709100Y-48133243D01*
X138153339Y-48132758D01*
X137920000Y-48229171D01*
X137920000Y-46736000D01*
X137862148Y-46445161D01*
X137697401Y-46198599D01*
X136681401Y-45182599D01*
X136647579Y-45160000D01*
X187250000Y-45160000D01*
X187250000Y-74220000D01*
X101040000Y-74220000D01*
X101040000Y-49322302D01*
X101460856Y-49322302D01*
X101488638Y-49877368D01*
X101647603Y-50261143D01*
X101889787Y-50330608D01*
X102690395Y-49530000D01*
X101889787Y-48729392D01*
X101647603Y-48798857D01*
X101460856Y-49322302D01*
X101040000Y-49322302D01*
X101040000Y-45160000D01*
X106176421Y-45160000D01*
X106142599Y-45182599D01*
X106142599Y-45182599D01*
G37*
X106142599Y-45182599D02*
X103602599Y-47722599D01*
X103437852Y-47969161D01*
X103385812Y-48230780D01*
X103077698Y-48120856D01*
X102522632Y-48148638D01*
X102138857Y-48307603D01*
X102069392Y-48549787D01*
X102870000Y-49350395D01*
X102884143Y-49336253D01*
X103063748Y-49515858D01*
X103049605Y-49530000D01*
X103063748Y-49544143D01*
X102884143Y-49723748D01*
X102870000Y-49709605D01*
X102069392Y-50510213D01*
X102138857Y-50752397D01*
X102662302Y-50939144D01*
X103217368Y-50911362D01*
X103380000Y-50843998D01*
X103380000Y-63469121D01*
X103149100Y-63373243D01*
X102593339Y-63372758D01*
X102079697Y-63584990D01*
X101686371Y-63977630D01*
X101473243Y-64490900D01*
X101472758Y-65046661D01*
X101684990Y-65560303D01*
X102077630Y-65953629D01*
X102590900Y-66166757D01*
X102990025Y-66167105D01*
X102929852Y-66257161D01*
X102872000Y-66548000D01*
X102872000Y-66944345D01*
X102500902Y-67314796D01*
X102297232Y-67805287D01*
X102296769Y-68336383D01*
X102499582Y-68827229D01*
X102874796Y-69203098D01*
X103365287Y-69406768D01*
X103896383Y-69407231D01*
X104387229Y-69204418D01*
X104763098Y-68829204D01*
X104836937Y-68651380D01*
X104836769Y-68844383D01*
X105039582Y-69335229D01*
X105414796Y-69711098D01*
X105460227Y-69729963D01*
X104994946Y-70040853D01*
X104775000Y-70370026D01*
X104555054Y-70040853D01*
X104073285Y-69718946D01*
X103505000Y-69605907D01*
X102936715Y-69718946D01*
X102454946Y-70040853D01*
X102133039Y-70522622D01*
X102020000Y-71090907D01*
X102020000Y-71149093D01*
X102133039Y-71717378D01*
X102454946Y-72199147D01*
X102936715Y-72521054D01*
X103505000Y-72634093D01*
X104073285Y-72521054D01*
X104555054Y-72199147D01*
X104775000Y-71869974D01*
X104994946Y-72199147D01*
X105476715Y-72521054D01*
X106045000Y-72634093D01*
X106613285Y-72521054D01*
X107095054Y-72199147D01*
X107124403Y-72155223D01*
X107196673Y-72329698D01*
X107375301Y-72508327D01*
X107608690Y-72605000D01*
X108299250Y-72605000D01*
X108458000Y-72446250D01*
X108458000Y-71247000D01*
X108712000Y-71247000D01*
X108712000Y-72446250D01*
X108870750Y-72605000D01*
X109561310Y-72605000D01*
X109794699Y-72508327D01*
X109973327Y-72329698D01*
X110070000Y-72096309D01*
X110070000Y-71405750D01*
X109911250Y-71247000D01*
X108712000Y-71247000D01*
X108458000Y-71247000D01*
X108438000Y-71247000D01*
X108438000Y-71090907D01*
X115355000Y-71090907D01*
X115355000Y-71149093D01*
X115468039Y-71717378D01*
X115789946Y-72199147D01*
X116271715Y-72521054D01*
X116840000Y-72634093D01*
X117408285Y-72521054D01*
X117890054Y-72199147D01*
X118110000Y-71869974D01*
X118329946Y-72199147D01*
X118811715Y-72521054D01*
X119380000Y-72634093D01*
X119948285Y-72521054D01*
X120430054Y-72199147D01*
X120657702Y-71858447D01*
X120724817Y-72001358D01*
X121153076Y-72391645D01*
X121563110Y-72561476D01*
X121793000Y-72440155D01*
X121793000Y-71247000D01*
X121773000Y-71247000D01*
X121773000Y-70993000D01*
X121793000Y-70993000D01*
X121793000Y-69799845D01*
X122047000Y-69799845D01*
X122047000Y-70993000D01*
X122067000Y-70993000D01*
X122067000Y-71247000D01*
X122047000Y-71247000D01*
X122047000Y-72440155D01*
X122276890Y-72561476D01*
X122686924Y-72391645D01*
X122989937Y-72115499D01*
X123006838Y-72205317D01*
X123145910Y-72421441D01*
X123358110Y-72566431D01*
X123610000Y-72617440D01*
X125310000Y-72617440D01*
X125545317Y-72573162D01*
X125761441Y-72434090D01*
X125906431Y-72221890D01*
X125957440Y-71970000D01*
X125957440Y-70270000D01*
X125913162Y-70034683D01*
X125774090Y-69818559D01*
X125561890Y-69673569D01*
X125310000Y-69622560D01*
X123610000Y-69622560D01*
X123374683Y-69666838D01*
X123158559Y-69805910D01*
X123013569Y-70018110D01*
X122991699Y-70126107D01*
X122686924Y-69848355D01*
X122276890Y-69678524D01*
X122047000Y-69799845D01*
X121793000Y-69799845D01*
X121563110Y-69678524D01*
X121153076Y-69848355D01*
X120724817Y-70238642D01*
X120657702Y-70381553D01*
X120430054Y-70040853D01*
X119948285Y-69718946D01*
X119380000Y-69605907D01*
X118811715Y-69718946D01*
X118329946Y-70040853D01*
X118110000Y-70370026D01*
X117890054Y-70040853D01*
X117408285Y-69718946D01*
X116840000Y-69605907D01*
X116271715Y-69718946D01*
X115789946Y-70040853D01*
X115468039Y-70522622D01*
X115355000Y-71090907D01*
X108438000Y-71090907D01*
X108438000Y-70993000D01*
X108458000Y-70993000D01*
X108458000Y-69793750D01*
X108712000Y-69793750D01*
X108712000Y-70993000D01*
X109911250Y-70993000D01*
X110070000Y-70834250D01*
X110070000Y-70143691D01*
X109973327Y-69910302D01*
X109794699Y-69731673D01*
X109561310Y-69635000D01*
X108870750Y-69635000D01*
X108712000Y-69793750D01*
X108458000Y-69793750D01*
X108299250Y-69635000D01*
X107608690Y-69635000D01*
X107375301Y-69731673D01*
X107196673Y-69910302D01*
X107124403Y-70084777D01*
X107095054Y-70040853D01*
X106727206Y-69795066D01*
X106927229Y-69712418D01*
X107303098Y-69337204D01*
X107506768Y-68846713D01*
X107507231Y-68315617D01*
X107304418Y-67824771D01*
X107291868Y-67812199D01*
X107563601Y-67758148D01*
X107810163Y-67593401D01*
X109573891Y-65829673D01*
X109697630Y-65953629D01*
X110210900Y-66166757D01*
X110766661Y-66167242D01*
X111280303Y-65955010D01*
X111673629Y-65562370D01*
X111759949Y-65354488D01*
X111844990Y-65560303D01*
X112237630Y-65953629D01*
X112750900Y-66166757D01*
X113306661Y-66167242D01*
X113820303Y-65955010D01*
X114213629Y-65562370D01*
X114299949Y-65354488D01*
X114384990Y-65560303D01*
X114777630Y-65953629D01*
X115290900Y-66166757D01*
X115846661Y-66167242D01*
X116360303Y-65955010D01*
X116753629Y-65562370D01*
X116839949Y-65354488D01*
X116924990Y-65560303D01*
X117317630Y-65953629D01*
X117830900Y-66166757D01*
X118386661Y-66167242D01*
X118900303Y-65955010D01*
X119293629Y-65562370D01*
X119379949Y-65354488D01*
X119464990Y-65560303D01*
X119857630Y-65953629D01*
X120370900Y-66166757D01*
X120926661Y-66167242D01*
X121440303Y-65955010D01*
X121833629Y-65562370D01*
X121919949Y-65354488D01*
X122004990Y-65560303D01*
X122397630Y-65953629D01*
X122910900Y-66166757D01*
X123466661Y-66167242D01*
X123980303Y-65955010D01*
X124373629Y-65562370D01*
X124459949Y-65354488D01*
X124544990Y-65560303D01*
X124937630Y-65953629D01*
X125450900Y-66166757D01*
X126006661Y-66167242D01*
X126240000Y-66070829D01*
X126240000Y-67564000D01*
X126297852Y-67854839D01*
X126462599Y-68101401D01*
X129729226Y-71368028D01*
X129728769Y-71892383D01*
X129931582Y-72383229D01*
X130306796Y-72759098D01*
X130797287Y-72962768D01*
X131328383Y-72963231D01*
X131819229Y-72760418D01*
X132195098Y-72385204D01*
X132398768Y-71894713D01*
X132398915Y-71725907D01*
X134405000Y-71725907D01*
X134405000Y-71784093D01*
X134518039Y-72352378D01*
X134839946Y-72834147D01*
X135321715Y-73156054D01*
X135890000Y-73269093D01*
X136458285Y-73156054D01*
X136940054Y-72834147D01*
X137160000Y-72504974D01*
X137379946Y-72834147D01*
X137861715Y-73156054D01*
X138430000Y-73269093D01*
X138998285Y-73156054D01*
X139480054Y-72834147D01*
X139707702Y-72493447D01*
X139774817Y-72636358D01*
X140203076Y-73026645D01*
X140613110Y-73196476D01*
X140843000Y-73075155D01*
X140843000Y-71882000D01*
X140823000Y-71882000D01*
X140823000Y-71628000D01*
X140843000Y-71628000D01*
X140843000Y-70434845D01*
X141097000Y-70434845D01*
X141097000Y-71628000D01*
X141117000Y-71628000D01*
X141117000Y-71882000D01*
X141097000Y-71882000D01*
X141097000Y-73075155D01*
X141326890Y-73196476D01*
X141736924Y-73026645D01*
X142039937Y-72750499D01*
X142056838Y-72840317D01*
X142195910Y-73056441D01*
X142408110Y-73201431D01*
X142660000Y-73252440D01*
X144360000Y-73252440D01*
X144595317Y-73208162D01*
X144811441Y-73069090D01*
X144956431Y-72856890D01*
X145007440Y-72605000D01*
X145007440Y-70905000D01*
X144963162Y-70669683D01*
X144824090Y-70453559D01*
X144611890Y-70308569D01*
X144360000Y-70257560D01*
X142660000Y-70257560D01*
X142424683Y-70301838D01*
X142208559Y-70440910D01*
X142063569Y-70653110D01*
X142041699Y-70761107D01*
X141736924Y-70483355D01*
X141326890Y-70313524D01*
X141097000Y-70434845D01*
X140843000Y-70434845D01*
X140613110Y-70313524D01*
X140203076Y-70483355D01*
X139774817Y-70873642D01*
X139707702Y-71016553D01*
X139480054Y-70675853D01*
X138998285Y-70353946D01*
X138430000Y-70240907D01*
X137861715Y-70353946D01*
X137379946Y-70675853D01*
X137160000Y-71005026D01*
X136940054Y-70675853D01*
X136458285Y-70353946D01*
X135890000Y-70240907D01*
X135321715Y-70353946D01*
X134839946Y-70675853D01*
X134518039Y-71157622D01*
X134405000Y-71725907D01*
X132398915Y-71725907D01*
X132399231Y-71363617D01*
X132196418Y-70872771D01*
X131821204Y-70496902D01*
X131330713Y-70293232D01*
X130803574Y-70292772D01*
X129884804Y-69374002D01*
X130295229Y-69204418D01*
X130671098Y-68829204D01*
X130874768Y-68338713D01*
X130875231Y-67807617D01*
X130672418Y-67316771D01*
X130300000Y-66943703D01*
X130300000Y-66070879D01*
X130530900Y-66166757D01*
X131086661Y-66167242D01*
X131600303Y-65955010D01*
X131993629Y-65562370D01*
X132079949Y-65354488D01*
X132164990Y-65560303D01*
X132557630Y-65953629D01*
X133070900Y-66166757D01*
X133626661Y-66167242D01*
X134140303Y-65955010D01*
X134533629Y-65562370D01*
X134619949Y-65354488D01*
X134704990Y-65560303D01*
X135097630Y-65953629D01*
X135610900Y-66166757D01*
X136166661Y-66167242D01*
X136680303Y-65955010D01*
X137073629Y-65562370D01*
X137159949Y-65354488D01*
X137244990Y-65560303D01*
X137637630Y-65953629D01*
X138150900Y-66166757D01*
X138706661Y-66167242D01*
X139220303Y-65955010D01*
X139613629Y-65562370D01*
X139699949Y-65354488D01*
X139784990Y-65560303D01*
X140177630Y-65953629D01*
X140690900Y-66166757D01*
X141246661Y-66167242D01*
X141760303Y-65955010D01*
X142153629Y-65562370D01*
X142239949Y-65354488D01*
X142324990Y-65560303D01*
X142717630Y-65953629D01*
X143230900Y-66166757D01*
X143786661Y-66167242D01*
X144300303Y-65955010D01*
X144693629Y-65562370D01*
X144779949Y-65354488D01*
X144864990Y-65560303D01*
X145257630Y-65953629D01*
X145770900Y-66166757D01*
X146326661Y-66167242D01*
X146840303Y-65955010D01*
X147045457Y-65750213D01*
X147789392Y-65750213D01*
X147858857Y-65992397D01*
X148382302Y-66179144D01*
X148937368Y-66151362D01*
X149321143Y-65992397D01*
X149390608Y-65750213D01*
X148590000Y-64949605D01*
X147789392Y-65750213D01*
X147045457Y-65750213D01*
X147233629Y-65562370D01*
X147313395Y-65370273D01*
X147367603Y-65501143D01*
X147609787Y-65570608D01*
X148410395Y-64770000D01*
X148769605Y-64770000D01*
X149570213Y-65570608D01*
X149812397Y-65501143D01*
X149862509Y-65360682D01*
X149944990Y-65560303D01*
X150337630Y-65953629D01*
X150850900Y-66166757D01*
X151406661Y-66167242D01*
X151920303Y-65955010D01*
X152313629Y-65562370D01*
X152494455Y-65126890D01*
X156038524Y-65126890D01*
X156208355Y-65536924D01*
X156598642Y-65965183D01*
X157123108Y-66211486D01*
X157353000Y-66090819D01*
X157353000Y-64897000D01*
X157607000Y-64897000D01*
X157607000Y-66090819D01*
X157836892Y-66211486D01*
X158361358Y-65965183D01*
X158750000Y-65538729D01*
X159138642Y-65965183D01*
X159663108Y-66211486D01*
X159893000Y-66090819D01*
X159893000Y-64897000D01*
X160147000Y-64897000D01*
X160147000Y-66090819D01*
X160376892Y-66211486D01*
X160901358Y-65965183D01*
X161291645Y-65536924D01*
X161461476Y-65126890D01*
X161340155Y-64897000D01*
X160147000Y-64897000D01*
X159893000Y-64897000D01*
X157607000Y-64897000D01*
X157353000Y-64897000D01*
X156159845Y-64897000D01*
X156038524Y-65126890D01*
X152494455Y-65126890D01*
X152526757Y-65049100D01*
X152527242Y-64493339D01*
X152315010Y-63979697D01*
X151922370Y-63586371D01*
X151409100Y-63373243D01*
X150853339Y-63372758D01*
X150339697Y-63584990D01*
X149946371Y-63977630D01*
X149866605Y-64169727D01*
X149812397Y-64038857D01*
X149570213Y-63969392D01*
X148769605Y-64770000D01*
X148410395Y-64770000D01*
X147609787Y-63969392D01*
X147367603Y-64038857D01*
X147317491Y-64179318D01*
X147235010Y-63979697D01*
X147045432Y-63789787D01*
X147789392Y-63789787D01*
X148590000Y-64590395D01*
X149390608Y-63789787D01*
X149321143Y-63547603D01*
X148797698Y-63360856D01*
X148242632Y-63388638D01*
X147858857Y-63547603D01*
X147789392Y-63789787D01*
X147045432Y-63789787D01*
X146842370Y-63586371D01*
X146329100Y-63373243D01*
X145773339Y-63372758D01*
X145259697Y-63584990D01*
X144866371Y-63977630D01*
X144780051Y-64185512D01*
X144695010Y-63979697D01*
X144302370Y-63586371D01*
X143789100Y-63373243D01*
X143233339Y-63372758D01*
X142719697Y-63584990D01*
X142326371Y-63977630D01*
X142240051Y-64185512D01*
X142155010Y-63979697D01*
X141762370Y-63586371D01*
X141249100Y-63373243D01*
X140693339Y-63372758D01*
X140179697Y-63584990D01*
X139786371Y-63977630D01*
X139700051Y-64185512D01*
X139615010Y-63979697D01*
X139222370Y-63586371D01*
X139171127Y-63565093D01*
X139329383Y-63565231D01*
X139820229Y-63362418D01*
X140196098Y-62987204D01*
X140399768Y-62496713D01*
X140400231Y-61965617D01*
X140197418Y-61474771D01*
X139825000Y-61101703D01*
X139825000Y-55737655D01*
X140196098Y-55367204D01*
X140399768Y-54876713D01*
X140400231Y-54345617D01*
X140197418Y-53854771D01*
X139822204Y-53478902D01*
X139331713Y-53275232D01*
X138800617Y-53274769D01*
X138309771Y-53477582D01*
X137933902Y-53852796D01*
X137730232Y-54343287D01*
X137729769Y-54874383D01*
X137932582Y-55365229D01*
X138305000Y-55738297D01*
X138305000Y-61102345D01*
X137933902Y-61472796D01*
X137859952Y-61650888D01*
X137860231Y-61330617D01*
X137657418Y-60839771D01*
X137285000Y-60466703D01*
X137285000Y-58277655D01*
X137656098Y-57907204D01*
X137859768Y-57416713D01*
X137860231Y-56885617D01*
X137657418Y-56394771D01*
X137282204Y-56018902D01*
X136791713Y-55815232D01*
X136260617Y-55814769D01*
X135769771Y-56017582D01*
X135393902Y-56392796D01*
X135190232Y-56883287D01*
X135189769Y-57414383D01*
X135392582Y-57905229D01*
X135765000Y-58278297D01*
X135765000Y-60467345D01*
X135393902Y-60837796D01*
X135190232Y-61328287D01*
X135189769Y-61859383D01*
X135392582Y-62350229D01*
X135767796Y-62726098D01*
X136258287Y-62929768D01*
X136789383Y-62930231D01*
X137280229Y-62727418D01*
X137656098Y-62352204D01*
X137730048Y-62174112D01*
X137729769Y-62494383D01*
X137932582Y-62985229D01*
X138307796Y-63361098D01*
X138336261Y-63372918D01*
X138153339Y-63372758D01*
X137639697Y-63584990D01*
X137246371Y-63977630D01*
X137160051Y-64185512D01*
X137075010Y-63979697D01*
X136682370Y-63586371D01*
X136169100Y-63373243D01*
X135613339Y-63372758D01*
X135099697Y-63584990D01*
X134706371Y-63977630D01*
X134620051Y-64185512D01*
X134535010Y-63979697D01*
X134142370Y-63586371D01*
X133629100Y-63373243D01*
X133073339Y-63372758D01*
X132559697Y-63584990D01*
X132166371Y-63977630D01*
X132080051Y-64185512D01*
X131995010Y-63979697D01*
X131602370Y-63586371D01*
X131089100Y-63373243D01*
X130533339Y-63372758D01*
X130300000Y-63469171D01*
X130300000Y-62747008D01*
X130242148Y-62456169D01*
X130077401Y-62209607D01*
X129830839Y-62044860D01*
X129540000Y-61987008D01*
X113509272Y-61987008D01*
X113121891Y-61599627D01*
X113121891Y-57689750D01*
X129496000Y-57689750D01*
X129496000Y-57955310D01*
X129592673Y-58188699D01*
X129771302Y-58367327D01*
X130004691Y-58464000D01*
X130270250Y-58464000D01*
X130429000Y-58305250D01*
X130429000Y-57531000D01*
X130683000Y-57531000D01*
X130683000Y-58305250D01*
X130841750Y-58464000D01*
X131107309Y-58464000D01*
X131340698Y-58367327D01*
X131519327Y-58188699D01*
X131616000Y-57955310D01*
X131616000Y-57689750D01*
X131457250Y-57531000D01*
X130683000Y-57531000D01*
X130429000Y-57531000D01*
X129654750Y-57531000D01*
X129496000Y-57689750D01*
X113121891Y-57689750D01*
X113121891Y-56852690D01*
X129496000Y-56852690D01*
X129496000Y-57118250D01*
X129654750Y-57277000D01*
X130429000Y-57277000D01*
X130429000Y-56502750D01*
X130683000Y-56502750D01*
X130683000Y-57277000D01*
X131457250Y-57277000D01*
X131616000Y-57118250D01*
X131616000Y-56852690D01*
X131519327Y-56619301D01*
X131340698Y-56440673D01*
X131107309Y-56344000D01*
X130841750Y-56344000D01*
X130683000Y-56502750D01*
X130429000Y-56502750D01*
X130270250Y-56344000D01*
X130004691Y-56344000D01*
X129771302Y-56440673D01*
X129592673Y-56619301D01*
X129496000Y-56852690D01*
X113121891Y-56852690D01*
X113121891Y-54180965D01*
X114094060Y-53208796D01*
X114271820Y-53208796D01*
X114642271Y-53579894D01*
X115132762Y-53783564D01*
X115663858Y-53784027D01*
X116154704Y-53581214D01*
X116530573Y-53206000D01*
X116734243Y-52715509D01*
X116734706Y-52184413D01*
X116683429Y-52060314D01*
X132265512Y-52060314D01*
X132269226Y-52064028D01*
X132268769Y-52588383D01*
X132471582Y-53079229D01*
X132846796Y-53455098D01*
X133337287Y-53658768D01*
X133868383Y-53659231D01*
X134359229Y-53456418D01*
X134735098Y-53081204D01*
X134938768Y-52590713D01*
X134938938Y-52395417D01*
X135011582Y-52571229D01*
X135386796Y-52947098D01*
X135877287Y-53150768D01*
X136408383Y-53151231D01*
X136899229Y-52948418D01*
X137275098Y-52573204D01*
X137478768Y-52082713D01*
X137478779Y-52070000D01*
X155965907Y-52070000D01*
X156078946Y-52638285D01*
X156400853Y-53120054D01*
X156730026Y-53340000D01*
X156400853Y-53559946D01*
X156078946Y-54041715D01*
X155965907Y-54610000D01*
X156078946Y-55178285D01*
X156400853Y-55660054D01*
X156730026Y-55880000D01*
X156400853Y-56099946D01*
X156078946Y-56581715D01*
X155965907Y-57150000D01*
X156078946Y-57718285D01*
X156400853Y-58200054D01*
X156730026Y-58420000D01*
X156400853Y-58639946D01*
X156078946Y-59121715D01*
X155965907Y-59690000D01*
X156078946Y-60258285D01*
X156400853Y-60740054D01*
X156730026Y-60960000D01*
X156400853Y-61179946D01*
X156078946Y-61661715D01*
X155965907Y-62230000D01*
X156078946Y-62798285D01*
X156400853Y-63280054D01*
X156741553Y-63507702D01*
X156598642Y-63574817D01*
X156208355Y-64003076D01*
X156038524Y-64413110D01*
X156159845Y-64643000D01*
X157353000Y-64643000D01*
X157353000Y-64623000D01*
X157607000Y-64623000D01*
X157607000Y-64643000D01*
X159893000Y-64643000D01*
X159893000Y-64623000D01*
X160147000Y-64623000D01*
X160147000Y-64643000D01*
X161340155Y-64643000D01*
X161461476Y-64413110D01*
X161291645Y-64003076D01*
X160901358Y-63574817D01*
X160758447Y-63507702D01*
X161099147Y-63280054D01*
X161421054Y-62798285D01*
X161534093Y-62230000D01*
X161421054Y-61661715D01*
X161099147Y-61179946D01*
X160769974Y-60960000D01*
X161099147Y-60740054D01*
X161421054Y-60258285D01*
X161534093Y-59690000D01*
X161421054Y-59121715D01*
X161099147Y-58639946D01*
X160769974Y-58420000D01*
X161099147Y-58200054D01*
X161421054Y-57718285D01*
X161534093Y-57150000D01*
X161421054Y-56581715D01*
X161099147Y-56099946D01*
X160769974Y-55880000D01*
X161099147Y-55660054D01*
X161421054Y-55178285D01*
X161534093Y-54610000D01*
X161421054Y-54041715D01*
X161099147Y-53559946D01*
X160769974Y-53340000D01*
X161099147Y-53120054D01*
X161421054Y-52638285D01*
X161534093Y-52070000D01*
X161421054Y-51501715D01*
X161099147Y-51019946D01*
X160769974Y-50800000D01*
X161099147Y-50580054D01*
X161421054Y-50098285D01*
X161534093Y-49530000D01*
X161421054Y-48961715D01*
X161099147Y-48479946D01*
X160617378Y-48158039D01*
X160049093Y-48045000D01*
X159990907Y-48045000D01*
X159422622Y-48158039D01*
X158940853Y-48479946D01*
X158940029Y-48481179D01*
X158933162Y-48444683D01*
X158794090Y-48228559D01*
X158581890Y-48083569D01*
X158330000Y-48032560D01*
X156630000Y-48032560D01*
X156394683Y-48076838D01*
X156178559Y-48215910D01*
X156033569Y-48428110D01*
X155982560Y-48680000D01*
X155982560Y-50380000D01*
X156026838Y-50615317D01*
X156165910Y-50831441D01*
X156378110Y-50976431D01*
X156445541Y-50990086D01*
X156400853Y-51019946D01*
X156078946Y-51501715D01*
X155965907Y-52070000D01*
X137478779Y-52070000D01*
X137479228Y-51555574D01*
X137697401Y-51337401D01*
X137862148Y-51090839D01*
X137914326Y-50828523D01*
X138150900Y-50926757D01*
X138706661Y-50927242D01*
X139220303Y-50715010D01*
X139613629Y-50322370D01*
X139699949Y-50114488D01*
X139784990Y-50320303D01*
X140177630Y-50713629D01*
X140690900Y-50926757D01*
X141246661Y-50927242D01*
X141760303Y-50715010D01*
X142153629Y-50322370D01*
X142239949Y-50114488D01*
X142324990Y-50320303D01*
X142717630Y-50713629D01*
X143230900Y-50926757D01*
X143786661Y-50927242D01*
X144300303Y-50715010D01*
X144693629Y-50322370D01*
X144779949Y-50114488D01*
X144864990Y-50320303D01*
X145257630Y-50713629D01*
X145770900Y-50926757D01*
X146326661Y-50927242D01*
X146840303Y-50715010D01*
X147233629Y-50322370D01*
X147319949Y-50114488D01*
X147404990Y-50320303D01*
X147797630Y-50713629D01*
X148310900Y-50926757D01*
X148866661Y-50927242D01*
X149380303Y-50715010D01*
X149773629Y-50322370D01*
X149859949Y-50114488D01*
X149944990Y-50320303D01*
X150337630Y-50713629D01*
X150850900Y-50926757D01*
X151406661Y-50927242D01*
X151920303Y-50715010D01*
X152313629Y-50322370D01*
X152526757Y-49809100D01*
X152527242Y-49253339D01*
X152315010Y-48739697D01*
X151922370Y-48346371D01*
X151409100Y-48133243D01*
X150853339Y-48132758D01*
X150339697Y-48344990D01*
X149946371Y-48737630D01*
X149860051Y-48945512D01*
X149775010Y-48739697D01*
X149382370Y-48346371D01*
X148869100Y-48133243D01*
X148313339Y-48132758D01*
X147799697Y-48344990D01*
X147406371Y-48737630D01*
X147320051Y-48945512D01*
X147235010Y-48739697D01*
X146842370Y-48346371D01*
X146329100Y-48133243D01*
X145773339Y-48132758D01*
X145259697Y-48344990D01*
X144866371Y-48737630D01*
X144780051Y-48945512D01*
X144695010Y-48739697D01*
X144302370Y-48346371D01*
X143789100Y-48133243D01*
X143233339Y-48132758D01*
X142719697Y-48344990D01*
X142326371Y-48737630D01*
X142240051Y-48945512D01*
X142155010Y-48739697D01*
X141762370Y-48346371D01*
X141249100Y-48133243D01*
X140693339Y-48132758D01*
X140179697Y-48344990D01*
X139786371Y-48737630D01*
X139700051Y-48945512D01*
X139615010Y-48739697D01*
X139222370Y-48346371D01*
X138709100Y-48133243D01*
X138153339Y-48132758D01*
X137920000Y-48229171D01*
X137920000Y-46736000D01*
X137862148Y-46445161D01*
X137697401Y-46198599D01*
X136681401Y-45182599D01*
X136647579Y-45160000D01*
X187250000Y-45160000D01*
X187250000Y-74220000D01*
X101040000Y-74220000D01*
X101040000Y-49322302D01*
X101460856Y-49322302D01*
X101488638Y-49877368D01*
X101647603Y-50261143D01*
X101889787Y-50330608D01*
X102690395Y-49530000D01*
X101889787Y-48729392D01*
X101647603Y-48798857D01*
X101460856Y-49322302D01*
X101040000Y-49322302D01*
X101040000Y-45160000D01*
X106176421Y-45160000D01*
X106142599Y-45182599D01*
G36*
X136400000Y-47050802D02*
X136400000Y-48229121D01*
X136169100Y-48133243D01*
X135613339Y-48132758D01*
X135099697Y-48344990D01*
X134706371Y-48737630D01*
X134620051Y-48945512D01*
X134535010Y-48739697D01*
X134142370Y-48346371D01*
X133629100Y-48133243D01*
X133073339Y-48132758D01*
X132559697Y-48344990D01*
X132166371Y-48737630D01*
X132080051Y-48945512D01*
X131995010Y-48739697D01*
X131602370Y-48346371D01*
X131089100Y-48133243D01*
X130533339Y-48132758D01*
X130019697Y-48344990D01*
X129626371Y-48737630D01*
X129540051Y-48945512D01*
X129455010Y-48739697D01*
X129062370Y-48346371D01*
X128549100Y-48133243D01*
X127993339Y-48132758D01*
X127479697Y-48344990D01*
X127086371Y-48737630D01*
X127000051Y-48945512D01*
X126915010Y-48739697D01*
X126522370Y-48346371D01*
X126009100Y-48133243D01*
X125453339Y-48132758D01*
X124939697Y-48344990D01*
X124546371Y-48737630D01*
X124460051Y-48945512D01*
X124375010Y-48739697D01*
X123982370Y-48346371D01*
X123469100Y-48133243D01*
X122913339Y-48132758D01*
X122399697Y-48344990D01*
X122006371Y-48737630D01*
X121920051Y-48945512D01*
X121835010Y-48739697D01*
X121442370Y-48346371D01*
X120929100Y-48133243D01*
X120373339Y-48132758D01*
X119859697Y-48344990D01*
X119466371Y-48737630D01*
X119380051Y-48945512D01*
X119295010Y-48739697D01*
X118902370Y-48346371D01*
X118389100Y-48133243D01*
X117833339Y-48132758D01*
X117319697Y-48344990D01*
X116926371Y-48737630D01*
X116840051Y-48945512D01*
X116755010Y-48739697D01*
X116362370Y-48346371D01*
X115849100Y-48133243D01*
X115293339Y-48132758D01*
X114779697Y-48344990D01*
X114386371Y-48737630D01*
X114300051Y-48945512D01*
X114215010Y-48739697D01*
X113822370Y-48346371D01*
X113309100Y-48133243D01*
X112753339Y-48132758D01*
X112239697Y-48344990D01*
X111846371Y-48737630D01*
X111760051Y-48945512D01*
X111675010Y-48739697D01*
X111282370Y-48346371D01*
X110769100Y-48133243D01*
X110213339Y-48132758D01*
X109699697Y-48344990D01*
X109306371Y-48737630D01*
X109220051Y-48945512D01*
X109135010Y-48739697D01*
X108742370Y-48346371D01*
X108229100Y-48133243D01*
X107673339Y-48132758D01*
X107159697Y-48344990D01*
X106766371Y-48737630D01*
X106686605Y-48929727D01*
X106632397Y-48798857D01*
X106390213Y-48729392D01*
X105589605Y-49530000D01*
X106390213Y-50330608D01*
X106632397Y-50261143D01*
X106682509Y-50120682D01*
X106764990Y-50320303D01*
X107157630Y-50713629D01*
X107670900Y-50926757D01*
X108226661Y-50927242D01*
X108740303Y-50715010D01*
X109133629Y-50322370D01*
X109219949Y-50114488D01*
X109304990Y-50320303D01*
X109697630Y-50713629D01*
X110210900Y-50926757D01*
X110766661Y-50927242D01*
X111280303Y-50715010D01*
X111673629Y-50322370D01*
X111759949Y-50114488D01*
X111844990Y-50320303D01*
X111894223Y-50369622D01*
X111661632Y-50525034D01*
X108767361Y-53419305D01*
X108602614Y-53665867D01*
X108544762Y-53956706D01*
X108544762Y-63504317D01*
X108229100Y-63373243D01*
X107673339Y-63372758D01*
X107159697Y-63584990D01*
X106766371Y-63977630D01*
X106680051Y-64185512D01*
X106595010Y-63979697D01*
X106202370Y-63586371D01*
X105689100Y-63373243D01*
X105133339Y-63372758D01*
X104900000Y-63469171D01*
X104900000Y-50831293D01*
X105202302Y-50939144D01*
X105757368Y-50911362D01*
X106141143Y-50752397D01*
X106210608Y-50510213D01*
X105410000Y-49709605D01*
X105395858Y-49723748D01*
X105216253Y-49544143D01*
X105230395Y-49530000D01*
X105216253Y-49515858D01*
X105395858Y-49336253D01*
X105410000Y-49350395D01*
X106210608Y-48549787D01*
X106141143Y-48307603D01*
X105617698Y-48120856D01*
X105340049Y-48134753D01*
X106994802Y-46480000D01*
X135829198Y-46480000D01*
X136400000Y-47050802D01*
X136400000Y-47050802D01*
G37*
X136400000Y-47050802D02*
X136400000Y-48229121D01*
X136169100Y-48133243D01*
X135613339Y-48132758D01*
X135099697Y-48344990D01*
X134706371Y-48737630D01*
X134620051Y-48945512D01*
X134535010Y-48739697D01*
X134142370Y-48346371D01*
X133629100Y-48133243D01*
X133073339Y-48132758D01*
X132559697Y-48344990D01*
X132166371Y-48737630D01*
X132080051Y-48945512D01*
X131995010Y-48739697D01*
X131602370Y-48346371D01*
X131089100Y-48133243D01*
X130533339Y-48132758D01*
X130019697Y-48344990D01*
X129626371Y-48737630D01*
X129540051Y-48945512D01*
X129455010Y-48739697D01*
X129062370Y-48346371D01*
X128549100Y-48133243D01*
X127993339Y-48132758D01*
X127479697Y-48344990D01*
X127086371Y-48737630D01*
X127000051Y-48945512D01*
X126915010Y-48739697D01*
X126522370Y-48346371D01*
X126009100Y-48133243D01*
X125453339Y-48132758D01*
X124939697Y-48344990D01*
X124546371Y-48737630D01*
X124460051Y-48945512D01*
X124375010Y-48739697D01*
X123982370Y-48346371D01*
X123469100Y-48133243D01*
X122913339Y-48132758D01*
X122399697Y-48344990D01*
X122006371Y-48737630D01*
X121920051Y-48945512D01*
X121835010Y-48739697D01*
X121442370Y-48346371D01*
X120929100Y-48133243D01*
X120373339Y-48132758D01*
X119859697Y-48344990D01*
X119466371Y-48737630D01*
X119380051Y-48945512D01*
X119295010Y-48739697D01*
X118902370Y-48346371D01*
X118389100Y-48133243D01*
X117833339Y-48132758D01*
X117319697Y-48344990D01*
X116926371Y-48737630D01*
X116840051Y-48945512D01*
X116755010Y-48739697D01*
X116362370Y-48346371D01*
X115849100Y-48133243D01*
X115293339Y-48132758D01*
X114779697Y-48344990D01*
X114386371Y-48737630D01*
X114300051Y-48945512D01*
X114215010Y-48739697D01*
X113822370Y-48346371D01*
X113309100Y-48133243D01*
X112753339Y-48132758D01*
X112239697Y-48344990D01*
X111846371Y-48737630D01*
X111760051Y-48945512D01*
X111675010Y-48739697D01*
X111282370Y-48346371D01*
X110769100Y-48133243D01*
X110213339Y-48132758D01*
X109699697Y-48344990D01*
X109306371Y-48737630D01*
X109220051Y-48945512D01*
X109135010Y-48739697D01*
X108742370Y-48346371D01*
X108229100Y-48133243D01*
X107673339Y-48132758D01*
X107159697Y-48344990D01*
X106766371Y-48737630D01*
X106686605Y-48929727D01*
X106632397Y-48798857D01*
X106390213Y-48729392D01*
X105589605Y-49530000D01*
X106390213Y-50330608D01*
X106632397Y-50261143D01*
X106682509Y-50120682D01*
X106764990Y-50320303D01*
X107157630Y-50713629D01*
X107670900Y-50926757D01*
X108226661Y-50927242D01*
X108740303Y-50715010D01*
X109133629Y-50322370D01*
X109219949Y-50114488D01*
X109304990Y-50320303D01*
X109697630Y-50713629D01*
X110210900Y-50926757D01*
X110766661Y-50927242D01*
X111280303Y-50715010D01*
X111673629Y-50322370D01*
X111759949Y-50114488D01*
X111844990Y-50320303D01*
X111894223Y-50369622D01*
X111661632Y-50525034D01*
X108767361Y-53419305D01*
X108602614Y-53665867D01*
X108544762Y-53956706D01*
X108544762Y-63504317D01*
X108229100Y-63373243D01*
X107673339Y-63372758D01*
X107159697Y-63584990D01*
X106766371Y-63977630D01*
X106680051Y-64185512D01*
X106595010Y-63979697D01*
X106202370Y-63586371D01*
X105689100Y-63373243D01*
X105133339Y-63372758D01*
X104900000Y-63469171D01*
X104900000Y-50831293D01*
X105202302Y-50939144D01*
X105757368Y-50911362D01*
X106141143Y-50752397D01*
X106210608Y-50510213D01*
X105410000Y-49709605D01*
X105395858Y-49723748D01*
X105216253Y-49544143D01*
X105230395Y-49530000D01*
X105216253Y-49515858D01*
X105395858Y-49336253D01*
X105410000Y-49350395D01*
X106210608Y-48549787D01*
X106141143Y-48307603D01*
X105617698Y-48120856D01*
X105340049Y-48134753D01*
X106994802Y-46480000D01*
X135829198Y-46480000D01*
X136400000Y-47050802D01*
M02*
